<mxfile host="drawio-plugin" modified="2023-08-06T11:19:56.719Z" agent="5.0 (X11; Linux x86_64) AppleWebKit/537.36 (KHTML, like Gecko) Chrome/111.0.0.0 Safari/537.36" etag="mguHVY-zVuxAtgKyZYcx" version="20.5.3" type="embed" pages="2"><diagram id="-pB8VdMgXG9Jkp_zq85G" name="传输帧"><mxGraphModel dx="858" dy="769" grid="1" gridSize="10" guides="1" tooltips="1" connect="1" arrows="1" fold="1" page="1" pageScale="1" pageWidth="1169" pageHeight="827" math="0" shadow="0"><root><mxCell id="0"/><mxCell id="1" parent="0"/><mxCell id="2" value="&lt;font style=&quot;font-size: 17px;&quot;&gt;Payload&lt;/font&gt;" style="rounded=0;whiteSpace=wrap;html=1;fillColor=#66B2FF;" parent="1" vertex="1"><mxGeometry x="200" y="320" width="710" height="60" as="geometry"/></mxCell><mxCell id="3" value="" style="shape=flexArrow;endArrow=classic;html=1;rounded=0;" parent="1" edge="1"><mxGeometry width="50" height="50" relative="1" as="geometry"><mxPoint x="110" y="350" as="sourcePoint"/><mxPoint x="110" y="40" as="targetPoint"/></mxGeometry></mxCell><mxCell id="4" value="" style="rounded=0;whiteSpace=wrap;html=1;" parent="1" vertex="1"><mxGeometry x="70" y="365" width="80" height="10" as="geometry"/></mxCell><mxCell id="5" value="自&lt;br&gt;低&lt;br&gt;向&lt;br&gt;上" style="text;html=1;strokeColor=none;fillColor=none;align=center;verticalAlign=middle;whiteSpace=wrap;rounded=0;rotation=0;" parent="1" vertex="1"><mxGeometry x="120" y="165" width="40" height="70" as="geometry"/></mxCell><mxCell id="8" value="&lt;font style=&quot;font-size: 17px;&quot;&gt;TCP Package&lt;/font&gt;" style="text;html=1;strokeColor=none;fillColor=none;align=left;verticalAlign=middle;whiteSpace=wrap;rounded=0;" parent="1" vertex="1"><mxGeometry x="939" y="335" width="131" height="30" as="geometry"/></mxCell><mxCell id="14" value="" style="rounded=0;whiteSpace=wrap;html=1;sketch=0;fontSize=17;" parent="1" vertex="1"><mxGeometry x="190" y="320" width="100" height="60" as="geometry"/></mxCell><mxCell id="18" value="Head&lt;br&gt;uint16" style="text;html=1;strokeColor=none;fillColor=none;align=center;verticalAlign=middle;whiteSpace=wrap;rounded=0;sketch=0;fontSize=17;" parent="1" vertex="1"><mxGeometry x="210" y="320" width="60" height="60" as="geometry"/></mxCell><mxCell id="21" value="" style="endArrow=none;html=1;rounded=0;strokeColor=#FFFFFF;fontSize=17;exitX=1;exitY=0;exitDx=0;exitDy=0;entryX=0;entryY=1;entryDx=0;entryDy=0;" parent="1" source="14" target="22" edge="1"><mxGeometry width="50" height="50" relative="1" as="geometry"><mxPoint x="470" y="300" as="sourcePoint"/><mxPoint x="520" y="250" as="targetPoint"/></mxGeometry></mxCell><mxCell id="22" value="" style="rounded=0;whiteSpace=wrap;html=1;sketch=0;fontSize=17;fillColor=#66B2FF;" parent="1" vertex="1"><mxGeometry x="190" y="190" width="720" height="60" as="geometry"/></mxCell><mxCell id="25" value="" style="endArrow=none;html=1;rounded=0;strokeColor=#FFFFFF;fontSize=17;entryX=1;entryY=1;entryDx=0;entryDy=0;exitX=1;exitY=0;exitDx=0;exitDy=0;" parent="1" source="2" target="22" edge="1"><mxGeometry width="50" height="50" relative="1" as="geometry"><mxPoint x="312.06999999999994" y="328.5" as="sourcePoint"/><mxPoint x="199.99999999999955" y="260" as="targetPoint"/></mxGeometry></mxCell><mxCell id="26" value="&lt;font style=&quot;font-size: 17px;&quot;&gt;Frame&lt;/font&gt;" style="text;html=1;strokeColor=none;fillColor=none;align=left;verticalAlign=middle;whiteSpace=wrap;rounded=0;" parent="1" vertex="1"><mxGeometry x="939" y="205" width="80" height="30" as="geometry"/></mxCell><mxCell id="27" value="Head&lt;br&gt;byte" style="rounded=0;whiteSpace=wrap;html=1;sketch=0;fontSize=17;fillColor=#2A2A2A;" parent="1" vertex="1"><mxGeometry x="190" y="190" width="60" height="60" as="geometry"/></mxCell><mxCell id="28" value="Tail&lt;br&gt;byte" style="rounded=0;whiteSpace=wrap;html=1;sketch=0;fontSize=17;fillColor=#4D4D4D;" parent="1" vertex="1"><mxGeometry x="850" y="190" width="60" height="60" as="geometry"/></mxCell><mxCell id="29" value="Type&lt;br&gt;byte" style="rounded=0;whiteSpace=wrap;html=1;sketch=0;fontSize=17;fillColor=#4D4D4D;" parent="1" vertex="1"><mxGeometry x="250" y="190" width="60" height="60" as="geometry"/></mxCell><mxCell id="30" value="DataSize&lt;br&gt;uint16" style="rounded=0;whiteSpace=wrap;html=1;sketch=0;fontSize=17;fillColor=#4D4D4D;" parent="1" vertex="1"><mxGeometry x="310" y="190" width="120" height="60" as="geometry"/></mxCell><mxCell id="31" value="Checksum&lt;br&gt;uint16" style="rounded=0;whiteSpace=wrap;html=1;sketch=0;fontSize=17;fillColor=#4D4D4D;" parent="1" vertex="1"><mxGeometry x="737" y="190" width="120" height="60" as="geometry"/></mxCell><mxCell id="32" value="Data/Payload" style="rounded=0;whiteSpace=wrap;html=1;sketch=0;fontSize=17;fillColor=#66B2FF;" parent="1" vertex="1"><mxGeometry x="430" y="190" width="310" height="60" as="geometry"/></mxCell><mxCell id="35" value="" style="rounded=0;whiteSpace=wrap;html=1;sketch=0;fontSize=17;fillColor=#66B2FF;" parent="1" vertex="1"><mxGeometry x="190" y="50" width="720" height="60" as="geometry"/></mxCell><mxCell id="36" value="" style="endArrow=none;html=1;rounded=0;strokeColor=#FFFFFF;fontSize=17;exitX=1;exitY=0;exitDx=0;exitDy=0;entryX=0;entryY=1;entryDx=0;entryDy=0;" parent="1" source="30" target="35" edge="1"><mxGeometry width="50" height="50" relative="1" as="geometry"><mxPoint x="300" y="330" as="sourcePoint"/><mxPoint x="200.00000000000023" y="260" as="targetPoint"/></mxGeometry></mxCell><mxCell id="37" value="" style="endArrow=none;html=1;rounded=0;strokeColor=#FFFFFF;fontSize=17;exitX=0;exitY=0;exitDx=0;exitDy=0;entryX=1;entryY=1;entryDx=0;entryDy=0;" parent="1" source="31" target="35" edge="1"><mxGeometry width="50" height="50" relative="1" as="geometry"><mxPoint x="310" y="340" as="sourcePoint"/><mxPoint x="210.00000000000023" y="270" as="targetPoint"/></mxGeometry></mxCell><mxCell id="38" value="&lt;font style=&quot;font-size: 17px;&quot;&gt;Message&lt;/font&gt;" style="text;html=1;strokeColor=none;fillColor=none;align=left;verticalAlign=middle;whiteSpace=wrap;rounded=0;" parent="1" vertex="1"><mxGeometry x="939" y="65" width="80" height="30" as="geometry"/></mxCell><mxCell id="41" value="0x3C" style="text;html=1;strokeColor=none;fillColor=none;align=center;verticalAlign=middle;whiteSpace=wrap;rounded=0;sketch=0;fontSize=17;" parent="1" vertex="1"><mxGeometry x="190" y="160" width="60" height="30" as="geometry"/></mxCell><mxCell id="42" value="0x0D" style="text;html=1;strokeColor=none;fillColor=none;align=center;verticalAlign=middle;whiteSpace=wrap;rounded=0;sketch=0;fontSize=17;" parent="1" vertex="1"><mxGeometry x="857" y="160" width="53" height="30" as="geometry"/></mxCell><mxCell id="56" value="&lt;h1&gt;Transport&lt;/h1&gt;&lt;p&gt;&lt;/p&gt;&lt;span style=&quot;text-align: center;&quot;&gt;字节序：全部为大端序，默认的 TCP Package最大载荷为65535字节。&lt;br&gt;&lt;br&gt;Package：既可以是TCP,也可以是UDP，一个Package内至少包含一个完整的Frame;&lt;br&gt;&lt;br&gt;Frame：最小传输单元，以可见字符&quot;&amp;lt;&quot;和&quot;回车&quot;开始与结尾; DadaSize和Checksum分别为数据Payload的长度和经典校验和; Type为帧内Message的协议类别，一个Frame可以包含一个或多个Message,但其类别必须相同, 仅支持255中不同的协议（0为无效值）。&lt;br&gt;&lt;br&gt;Message：具体的消息定义; 目前(version&amp;lt;v0.4.0)共有binary和json两中协议解码编码方式，具体采用那种编码方式由协议定义时决定, 一个协议定义必须实现proto.Message 接口。&lt;br&gt;&lt;/span&gt;" style="text;html=1;strokeColor=none;fillColor=none;spacing=5;spacingTop=-20;whiteSpace=wrap;overflow=hidden;rounded=0;sketch=0;fontSize=17;" parent="1" vertex="1"><mxGeometry x="165" y="470" width="720" height="320" as="geometry"/></mxCell></root></mxGraphModel></diagram><diagram id="6uczi4QSNOcjjcZCQ0--" name="Message"><mxGraphModel dx="858" dy="769" grid="1" gridSize="10" guides="1" tooltips="1" connect="1" arrows="1" fold="1" page="1" pageScale="1" pageWidth="1169" pageHeight="827" math="0" shadow="0"><root><mxCell id="0"/><mxCell id="1" parent="0"/><mxCell id="Cg0Gd-JAqn2iNkRxokaa-1" value=" Message Type (byte)" style="shape=table;startSize=50;container=1;collapsible=0;childLayout=tableLayout;fontStyle=1;align=center;rounded=0;sketch=0;fontSize=24;fillColor=#66B2FF;" parent="1" vertex="1"><mxGeometry x="120" y="60" width="810" height="391" as="geometry"/></mxCell><mxCell id="jtx8YUKIoFRYlrF7leEJ-38" style="shape=tableRow;horizontal=0;startSize=0;swimlaneHead=0;swimlaneBody=0;top=0;left=0;bottom=0;right=0;collapsible=0;dropTarget=0;fillColor=none;points=[[0,0.5],[1,0.5]];portConstraint=eastwest;rounded=0;sketch=0;fontSize=17;" parent="Cg0Gd-JAqn2iNkRxokaa-1" vertex="1"><mxGeometry y="50" width="810" height="40" as="geometry"/></mxCell><mxCell id="jtx8YUKIoFRYlrF7leEJ-39" value="类别" style="shape=partialRectangle;html=1;whiteSpace=wrap;connectable=0;fillColor=none;top=0;left=0;bottom=0;right=0;overflow=hidden;rounded=0;sketch=0;fontSize=17;" parent="jtx8YUKIoFRYlrF7leEJ-38" vertex="1"><mxGeometry width="72" height="40" as="geometry"><mxRectangle width="72" height="40" as="alternateBounds"/></mxGeometry></mxCell><mxCell id="jtx8YUKIoFRYlrF7leEJ-40" value="枚举类型" style="shape=partialRectangle;html=1;whiteSpace=wrap;connectable=0;fillColor=none;top=0;left=0;bottom=0;right=0;overflow=hidden;rounded=0;sketch=0;fontSize=17;strokeColor=#F0F0F0;fontColor=#FFFFFF;align=center;labelPosition=center;verticalLabelPosition=middle;verticalAlign=middle;labelBackgroundColor=none;" parent="jtx8YUKIoFRYlrF7leEJ-38" vertex="1"><mxGeometry x="72" width="266" height="40" as="geometry"><mxRectangle width="266" height="40" as="alternateBounds"/></mxGeometry></mxCell><mxCell id="jtx8YUKIoFRYlrF7leEJ-41" value="解释说明" style="shape=partialRectangle;html=1;whiteSpace=wrap;connectable=0;fillColor=none;top=0;left=0;bottom=0;right=0;overflow=hidden;rounded=0;sketch=0;fontSize=17;strokeColor=#F0F0F0;fontColor=#FFFFFF;align=center;labelPosition=center;verticalLabelPosition=middle;verticalAlign=middle;labelBackgroundColor=none;" parent="jtx8YUKIoFRYlrF7leEJ-38" vertex="1"><mxGeometry x="338" width="236" height="40" as="geometry"><mxRectangle width="236" height="40" as="alternateBounds"/></mxGeometry></mxCell><mxCell id="jtx8YUKIoFRYlrF7leEJ-42" value="便解码方式" style="shape=partialRectangle;html=1;whiteSpace=wrap;connectable=0;fillColor=none;top=0;left=0;bottom=0;right=0;overflow=hidden;rounded=0;sketch=0;fontSize=17;strokeColor=#F0F0F0;fontColor=#FFFFFF;align=center;labelPosition=center;verticalLabelPosition=middle;verticalAlign=middle;labelBackgroundColor=none;" parent="jtx8YUKIoFRYlrF7leEJ-38" vertex="1"><mxGeometry x="574" width="236" height="40" as="geometry"><mxRectangle width="236" height="40" as="alternateBounds"/></mxGeometry></mxCell><mxCell id="Cg0Gd-JAqn2iNkRxokaa-2" value="" style="shape=tableRow;horizontal=0;startSize=0;swimlaneHead=0;swimlaneBody=0;top=0;left=0;bottom=0;right=0;collapsible=0;dropTarget=0;fillColor=none;points=[[0,0.5],[1,0.5]];portConstraint=eastwest;rounded=0;sketch=0;fontSize=17;" parent="Cg0Gd-JAqn2iNkRxokaa-1" vertex="1"><mxGeometry y="90" width="810" height="40" as="geometry"/></mxCell><mxCell id="Cg0Gd-JAqn2iNkRxokaa-3" value="0" style="shape=partialRectangle;html=1;whiteSpace=wrap;connectable=0;fillColor=none;top=0;left=0;bottom=0;right=0;overflow=hidden;rounded=0;sketch=0;fontSize=17;" parent="Cg0Gd-JAqn2iNkRxokaa-2" vertex="1"><mxGeometry width="72" height="40" as="geometry"><mxRectangle width="72" height="40" as="alternateBounds"/></mxGeometry></mxCell><mxCell id="Cg0Gd-JAqn2iNkRxokaa-4" value="&lt;div style=&quot;font-size: 17px;&quot;&gt;&lt;pre style=&quot;font-family: &amp;quot;JetBrains Mono&amp;quot;, monospace; font-size: 17px;&quot;&gt;&lt;span style=&quot;font-style: italic; font-size: 17px;&quot;&gt;&lt;font style=&quot;font-size: 17px;&quot;&gt;NotImplementMessageType&lt;/font&gt;&lt;/span&gt;&lt;/pre&gt;&lt;/div&gt;" style="shape=partialRectangle;html=1;whiteSpace=wrap;connectable=0;fillColor=none;top=0;left=0;bottom=0;right=0;overflow=hidden;rounded=0;sketch=0;fontSize=17;strokeColor=#F0F0F0;fontColor=#FFFFFF;align=center;labelPosition=center;verticalLabelPosition=middle;verticalAlign=middle;labelBackgroundColor=none;" parent="Cg0Gd-JAqn2iNkRxokaa-2" vertex="1"><mxGeometry x="72" width="266" height="40" as="geometry"><mxRectangle width="266" height="40" as="alternateBounds"/></mxGeometry></mxCell><mxCell id="Cg0Gd-JAqn2iNkRxokaa-5" value="未实现的消息类型" style="shape=partialRectangle;html=1;whiteSpace=wrap;connectable=0;fillColor=none;top=0;left=0;bottom=0;right=0;overflow=hidden;rounded=0;sketch=0;fontSize=17;strokeColor=#F0F0F0;fontColor=#FFFFFF;align=center;labelPosition=center;verticalLabelPosition=middle;verticalAlign=middle;labelBackgroundColor=none;" parent="Cg0Gd-JAqn2iNkRxokaa-2" vertex="1"><mxGeometry x="338" width="236" height="40" as="geometry"><mxRectangle width="236" height="40" as="alternateBounds"/></mxGeometry></mxCell><mxCell id="Cg0Gd-JAqn2iNkRxokaa-86" value="binary" style="shape=partialRectangle;html=1;whiteSpace=wrap;connectable=0;fillColor=none;top=0;left=0;bottom=0;right=0;overflow=hidden;rounded=0;sketch=0;fontSize=17;strokeColor=#F0F0F0;fontColor=#FFFFFF;align=center;labelPosition=center;verticalLabelPosition=middle;verticalAlign=middle;labelBackgroundColor=none;" parent="Cg0Gd-JAqn2iNkRxokaa-2" vertex="1"><mxGeometry x="574" width="236" height="40" as="geometry"><mxRectangle width="236" height="40" as="alternateBounds"/></mxGeometry></mxCell><mxCell id="Cg0Gd-JAqn2iNkRxokaa-6" value="" style="shape=tableRow;horizontal=0;startSize=0;swimlaneHead=0;swimlaneBody=0;top=0;left=0;bottom=0;right=0;collapsible=0;dropTarget=0;fillColor=none;points=[[0,0.5],[1,0.5]];portConstraint=eastwest;rounded=0;sketch=0;fontSize=17;" parent="Cg0Gd-JAqn2iNkRxokaa-1" vertex="1"><mxGeometry y="130" width="810" height="42" as="geometry"/></mxCell><mxCell id="Cg0Gd-JAqn2iNkRxokaa-7" value="1" style="shape=partialRectangle;html=1;whiteSpace=wrap;connectable=0;fillColor=none;top=0;left=0;bottom=0;right=0;overflow=hidden;rounded=0;sketch=0;fontSize=17;" parent="Cg0Gd-JAqn2iNkRxokaa-6" vertex="1"><mxGeometry width="72" height="42" as="geometry"><mxRectangle width="72" height="42" as="alternateBounds"/></mxGeometry></mxCell><mxCell id="Cg0Gd-JAqn2iNkRxokaa-8" value="&lt;div style=&quot;font-size: 17px;&quot;&gt;&lt;pre style=&quot;font-family: &amp;quot;JetBrains Mono&amp;quot;, monospace; font-size: 17px;&quot;&gt;&lt;span style=&quot;font-style: italic; font-size: 17px;&quot;&gt;RegisterMessageType&lt;/span&gt;&lt;/pre&gt;&lt;/div&gt;" style="shape=partialRectangle;html=1;whiteSpace=wrap;connectable=0;fillColor=none;top=0;left=0;bottom=0;right=0;overflow=hidden;rounded=0;sketch=0;fontSize=17;strokeColor=#F0F0F0;fontColor=#FFFFFF;align=center;labelPosition=center;verticalLabelPosition=middle;verticalAlign=middle;labelBackgroundColor=none;" parent="Cg0Gd-JAqn2iNkRxokaa-6" vertex="1"><mxGeometry x="72" width="266" height="42" as="geometry"><mxRectangle width="266" height="42" as="alternateBounds"/></mxGeometry></mxCell><mxCell id="Cg0Gd-JAqn2iNkRxokaa-9" value="客户端注册" style="shape=partialRectangle;html=1;whiteSpace=wrap;connectable=0;fillColor=none;top=0;left=0;bottom=0;right=0;overflow=hidden;rounded=0;sketch=0;fontSize=17;strokeColor=#F0F0F0;fontColor=#FFFFFF;align=center;labelPosition=center;verticalLabelPosition=middle;verticalAlign=middle;labelBackgroundColor=none;" parent="Cg0Gd-JAqn2iNkRxokaa-6" vertex="1"><mxGeometry x="338" width="236" height="42" as="geometry"><mxRectangle width="236" height="42" as="alternateBounds"/></mxGeometry></mxCell><mxCell id="Cg0Gd-JAqn2iNkRxokaa-87" value="json" style="shape=partialRectangle;html=1;whiteSpace=wrap;connectable=0;fillColor=none;top=0;left=0;bottom=0;right=0;overflow=hidden;rounded=0;sketch=0;fontSize=17;strokeColor=#F0F0F0;fontColor=#FFFFFF;align=center;labelPosition=center;verticalLabelPosition=middle;verticalAlign=middle;labelBackgroundColor=none;" parent="Cg0Gd-JAqn2iNkRxokaa-6" vertex="1"><mxGeometry x="574" width="236" height="42" as="geometry"><mxRectangle width="236" height="42" as="alternateBounds"/></mxGeometry></mxCell><mxCell id="Cg0Gd-JAqn2iNkRxokaa-10" value="" style="shape=tableRow;horizontal=0;startSize=0;swimlaneHead=0;swimlaneBody=0;top=0;left=0;bottom=0;right=0;collapsible=0;dropTarget=0;fillColor=none;points=[[0,0.5],[1,0.5]];portConstraint=eastwest;rounded=0;sketch=0;fontSize=17;" parent="Cg0Gd-JAqn2iNkRxokaa-1" vertex="1"><mxGeometry y="172" width="810" height="44" as="geometry"/></mxCell><mxCell id="Cg0Gd-JAqn2iNkRxokaa-11" value="2" style="shape=partialRectangle;html=1;whiteSpace=wrap;connectable=0;fillColor=none;top=0;left=0;bottom=0;right=0;overflow=hidden;rounded=0;sketch=0;fontSize=17;" parent="Cg0Gd-JAqn2iNkRxokaa-10" vertex="1"><mxGeometry width="72" height="44" as="geometry"><mxRectangle width="72" height="44" as="alternateBounds"/></mxGeometry></mxCell><mxCell id="Cg0Gd-JAqn2iNkRxokaa-12" value="&lt;div style=&quot;font-size: 17px;&quot;&gt;&lt;pre style=&quot;font-family: &amp;quot;JetBrains Mono&amp;quot;, monospace; font-size: 17px;&quot;&gt;&lt;span style=&quot;font-style: italic; font-size: 17px;&quot;&gt;RegisterMessageRespType&lt;/span&gt;&lt;/pre&gt;&lt;/div&gt;" style="shape=partialRectangle;html=1;whiteSpace=wrap;connectable=0;fillColor=none;top=0;left=0;bottom=0;right=0;overflow=hidden;rounded=0;sketch=0;fontSize=17;strokeColor=#F0F0F0;fontColor=#FFFFFF;align=center;labelPosition=center;verticalLabelPosition=middle;verticalAlign=middle;labelBackgroundColor=none;" parent="Cg0Gd-JAqn2iNkRxokaa-10" vertex="1"><mxGeometry x="72" width="266" height="44" as="geometry"><mxRectangle width="266" height="44" as="alternateBounds"/></mxGeometry></mxCell><mxCell id="Cg0Gd-JAqn2iNkRxokaa-13" value="注册响应" style="shape=partialRectangle;html=1;whiteSpace=wrap;connectable=0;fillColor=none;top=0;left=0;bottom=0;right=0;overflow=hidden;rounded=0;sketch=0;fontSize=17;strokeColor=#F0F0F0;fontColor=#FFFFFF;align=center;labelPosition=center;verticalLabelPosition=middle;verticalAlign=middle;labelBackgroundColor=none;" parent="Cg0Gd-JAqn2iNkRxokaa-10" vertex="1"><mxGeometry x="338" width="236" height="44" as="geometry"><mxRectangle width="236" height="44" as="alternateBounds"/></mxGeometry></mxCell><mxCell id="Cg0Gd-JAqn2iNkRxokaa-88" value="json" style="shape=partialRectangle;html=1;whiteSpace=wrap;connectable=0;fillColor=none;top=0;left=0;bottom=0;right=0;overflow=hidden;rounded=0;sketch=0;fontSize=17;strokeColor=#F0F0F0;fontColor=#FFFFFF;align=center;labelPosition=center;verticalLabelPosition=middle;verticalAlign=middle;labelBackgroundColor=none;" parent="Cg0Gd-JAqn2iNkRxokaa-10" vertex="1"><mxGeometry x="574" width="236" height="44" as="geometry"><mxRectangle width="236" height="44" as="alternateBounds"/></mxGeometry></mxCell><mxCell id="Cg0Gd-JAqn2iNkRxokaa-28" value="" style="shape=tableRow;horizontal=0;startSize=0;swimlaneHead=0;swimlaneBody=0;top=0;left=0;bottom=0;right=0;collapsible=0;dropTarget=0;fillColor=none;points=[[0,0.5],[1,0.5]];portConstraint=eastwest;rounded=0;sketch=0;fontSize=17;" parent="Cg0Gd-JAqn2iNkRxokaa-1" vertex="1"><mxGeometry y="216" width="810" height="44" as="geometry"/></mxCell><mxCell id="Cg0Gd-JAqn2iNkRxokaa-29" value="3" style="shape=partialRectangle;html=1;whiteSpace=wrap;connectable=0;fillColor=none;top=0;left=0;bottom=0;right=0;overflow=hidden;rounded=0;sketch=0;fontSize=17;" parent="Cg0Gd-JAqn2iNkRxokaa-28" vertex="1"><mxGeometry width="72" height="44" as="geometry"><mxRectangle width="72" height="44" as="alternateBounds"/></mxGeometry></mxCell><mxCell id="Cg0Gd-JAqn2iNkRxokaa-30" value="&lt;div style=&quot;font-size: 17px;&quot;&gt;&lt;pre style=&quot;font-family: &amp;quot;JetBrains Mono&amp;quot;, monospace; font-size: 17px;&quot;&gt;&lt;span style=&quot;font-style: italic; font-size: 17px;&quot;&gt;ReRegisterMessageType&lt;/span&gt;&lt;/pre&gt;&lt;/div&gt;" style="shape=partialRectangle;html=1;whiteSpace=wrap;connectable=0;fillColor=none;top=0;left=0;bottom=0;right=0;overflow=hidden;rounded=0;sketch=0;fontSize=17;strokeColor=#F0F0F0;fontColor=#FFFFFF;align=center;labelPosition=center;verticalLabelPosition=middle;verticalAlign=middle;labelBackgroundColor=none;" parent="Cg0Gd-JAqn2iNkRxokaa-28" vertex="1"><mxGeometry x="72" width="266" height="44" as="geometry"><mxRectangle width="266" height="44" as="alternateBounds"/></mxGeometry></mxCell><mxCell id="Cg0Gd-JAqn2iNkRxokaa-31" value="服务器要求客户端重新注册" style="shape=partialRectangle;html=1;whiteSpace=wrap;connectable=0;fillColor=none;top=0;left=0;bottom=0;right=0;overflow=hidden;rounded=0;sketch=0;fontSize=17;strokeColor=#F0F0F0;fontColor=#FFFFFF;align=center;labelPosition=center;verticalLabelPosition=middle;verticalAlign=middle;labelBackgroundColor=none;" parent="Cg0Gd-JAqn2iNkRxokaa-28" vertex="1"><mxGeometry x="338" width="236" height="44" as="geometry"><mxRectangle width="236" height="44" as="alternateBounds"/></mxGeometry></mxCell><mxCell id="Cg0Gd-JAqn2iNkRxokaa-89" value="json" style="shape=partialRectangle;html=1;whiteSpace=wrap;connectable=0;fillColor=none;top=0;left=0;bottom=0;right=0;overflow=hidden;rounded=0;sketch=0;fontSize=17;strokeColor=#F0F0F0;fontColor=#FFFFFF;align=center;labelPosition=center;verticalLabelPosition=middle;verticalAlign=middle;labelBackgroundColor=none;" parent="Cg0Gd-JAqn2iNkRxokaa-28" vertex="1"><mxGeometry x="574" width="236" height="44" as="geometry"><mxRectangle width="236" height="44" as="alternateBounds"/></mxGeometry></mxCell><mxCell id="Cg0Gd-JAqn2iNkRxokaa-32" value="" style="shape=tableRow;horizontal=0;startSize=0;swimlaneHead=0;swimlaneBody=0;top=0;left=0;bottom=0;right=0;collapsible=0;dropTarget=0;fillColor=none;points=[[0,0.5],[1,0.5]];portConstraint=eastwest;rounded=0;sketch=0;fontSize=17;" parent="Cg0Gd-JAqn2iNkRxokaa-1" vertex="1"><mxGeometry y="260" width="810" height="44" as="geometry"/></mxCell><mxCell id="Cg0Gd-JAqn2iNkRxokaa-33" value="100" style="shape=partialRectangle;html=1;whiteSpace=wrap;connectable=0;fillColor=none;top=0;left=0;bottom=0;right=0;overflow=hidden;rounded=0;sketch=0;fontSize=17;" parent="Cg0Gd-JAqn2iNkRxokaa-32" vertex="1"><mxGeometry width="72" height="44" as="geometry"><mxRectangle width="72" height="44" as="alternateBounds"/></mxGeometry></mxCell><mxCell id="Cg0Gd-JAqn2iNkRxokaa-34" value="&lt;div style=&quot;font-size: 17px;&quot;&gt;&lt;pre style=&quot;font-family: &amp;quot;JetBrains Mono&amp;quot;, monospace; font-size: 17px;&quot;&gt;&lt;span style=&quot;font-style: italic; font-size: 17px;&quot;&gt;MessageRespType&lt;/span&gt;&lt;/pre&gt;&lt;/div&gt;" style="shape=partialRectangle;html=1;whiteSpace=wrap;connectable=0;fillColor=none;top=0;left=0;bottom=0;right=0;overflow=hidden;rounded=0;sketch=0;fontSize=17;strokeColor=#F0F0F0;fontColor=#FFFFFF;align=center;labelPosition=center;verticalLabelPosition=middle;verticalAlign=middle;labelBackgroundColor=none;" parent="Cg0Gd-JAqn2iNkRxokaa-32" vertex="1"><mxGeometry x="72" width="266" height="44" as="geometry"><mxRectangle width="266" height="44" as="alternateBounds"/></mxGeometry></mxCell><mxCell id="Cg0Gd-JAqn2iNkRxokaa-35" value="通用的消息应答" style="shape=partialRectangle;html=1;whiteSpace=wrap;connectable=0;fillColor=none;top=0;left=0;bottom=0;right=0;overflow=hidden;rounded=0;sketch=0;fontSize=17;strokeColor=#F0F0F0;fontColor=#FFFFFF;align=center;labelPosition=center;verticalLabelPosition=middle;verticalAlign=middle;labelBackgroundColor=none;" parent="Cg0Gd-JAqn2iNkRxokaa-32" vertex="1"><mxGeometry x="338" width="236" height="44" as="geometry"><mxRectangle width="236" height="44" as="alternateBounds"/></mxGeometry></mxCell><mxCell id="Cg0Gd-JAqn2iNkRxokaa-90" value="json" style="shape=partialRectangle;html=1;whiteSpace=wrap;connectable=0;fillColor=none;top=0;left=0;bottom=0;right=0;overflow=hidden;rounded=0;sketch=0;fontSize=17;strokeColor=#F0F0F0;fontColor=#FFFFFF;align=center;labelPosition=center;verticalLabelPosition=middle;verticalAlign=middle;labelBackgroundColor=none;" parent="Cg0Gd-JAqn2iNkRxokaa-32" vertex="1"><mxGeometry x="574" width="236" height="44" as="geometry"><mxRectangle width="236" height="44" as="alternateBounds"/></mxGeometry></mxCell><mxCell id="Cg0Gd-JAqn2iNkRxokaa-36" value="" style="shape=tableRow;horizontal=0;startSize=0;swimlaneHead=0;swimlaneBody=0;top=0;left=0;bottom=0;right=0;collapsible=0;dropTarget=0;fillColor=none;points=[[0,0.5],[1,0.5]];portConstraint=eastwest;rounded=0;sketch=0;fontSize=17;" parent="Cg0Gd-JAqn2iNkRxokaa-1" vertex="1"><mxGeometry y="304" width="810" height="43" as="geometry"/></mxCell><mxCell id="Cg0Gd-JAqn2iNkRxokaa-37" value="101" style="shape=partialRectangle;html=1;whiteSpace=wrap;connectable=0;fillColor=none;top=0;left=0;bottom=0;right=0;overflow=hidden;rounded=0;sketch=0;fontSize=17;" parent="Cg0Gd-JAqn2iNkRxokaa-36" vertex="1"><mxGeometry width="72" height="43" as="geometry"><mxRectangle width="72" height="43" as="alternateBounds"/></mxGeometry></mxCell><mxCell id="Cg0Gd-JAqn2iNkRxokaa-38" value="&lt;div style=&quot;font-size: 17px;&quot;&gt;&lt;pre style=&quot;font-family: &amp;quot;JetBrains Mono&amp;quot;, monospace; font-size: 17px;&quot;&gt;&lt;span style=&quot;font-style: italic; font-size: 17px;&quot;&gt;PMessageType&lt;/span&gt;&lt;/pre&gt;&lt;/div&gt;" style="shape=partialRectangle;html=1;whiteSpace=wrap;connectable=0;fillColor=none;top=0;left=0;bottom=0;right=0;overflow=hidden;rounded=0;sketch=0;fontSize=17;strokeColor=#F0F0F0;fontColor=#FFFFFF;align=center;labelPosition=center;verticalLabelPosition=middle;verticalAlign=middle;labelBackgroundColor=none;" parent="Cg0Gd-JAqn2iNkRxokaa-36" vertex="1"><mxGeometry x="72" width="266" height="43" as="geometry"><mxRectangle width="266" height="43" as="alternateBounds"/></mxGeometry></mxCell><mxCell id="Cg0Gd-JAqn2iNkRxokaa-39" value="生产者消息类型" style="shape=partialRectangle;html=1;whiteSpace=wrap;connectable=0;fillColor=none;top=0;left=0;bottom=0;right=0;overflow=hidden;rounded=0;sketch=0;fontSize=17;strokeColor=#F0F0F0;fontColor=#FFFFFF;align=center;labelPosition=center;verticalLabelPosition=middle;verticalAlign=middle;labelBackgroundColor=none;" parent="Cg0Gd-JAqn2iNkRxokaa-36" vertex="1"><mxGeometry x="338" width="236" height="43" as="geometry"><mxRectangle width="236" height="43" as="alternateBounds"/></mxGeometry></mxCell><mxCell id="Cg0Gd-JAqn2iNkRxokaa-91" value="binary" style="shape=partialRectangle;html=1;whiteSpace=wrap;connectable=0;fillColor=none;top=0;left=0;bottom=0;right=0;overflow=hidden;rounded=0;sketch=0;fontSize=17;strokeColor=#F0F0F0;fontColor=#FFFFFF;align=center;labelPosition=center;verticalLabelPosition=middle;verticalAlign=middle;labelBackgroundColor=none;" parent="Cg0Gd-JAqn2iNkRxokaa-36" vertex="1"><mxGeometry x="574" width="236" height="43" as="geometry"><mxRectangle width="236" height="43" as="alternateBounds"/></mxGeometry></mxCell><mxCell id="Cg0Gd-JAqn2iNkRxokaa-40" value="" style="shape=tableRow;horizontal=0;startSize=0;swimlaneHead=0;swimlaneBody=0;top=0;left=0;bottom=0;right=0;collapsible=0;dropTarget=0;fillColor=none;points=[[0,0.5],[1,0.5]];portConstraint=eastwest;rounded=0;sketch=0;fontSize=17;" parent="Cg0Gd-JAqn2iNkRxokaa-1" vertex="1"><mxGeometry y="347" width="810" height="44" as="geometry"/></mxCell><mxCell id="Cg0Gd-JAqn2iNkRxokaa-41" value="102" style="shape=partialRectangle;html=1;whiteSpace=wrap;connectable=0;fillColor=none;top=0;left=0;bottom=0;right=0;overflow=hidden;rounded=0;sketch=0;fontSize=17;" parent="Cg0Gd-JAqn2iNkRxokaa-40" vertex="1"><mxGeometry width="72" height="44" as="geometry"><mxRectangle width="72" height="44" as="alternateBounds"/></mxGeometry></mxCell><mxCell id="Cg0Gd-JAqn2iNkRxokaa-42" value="&lt;div style=&quot;font-size: 17px;&quot;&gt;&lt;pre style=&quot;font-family: &amp;quot;JetBrains Mono&amp;quot;, monospace; font-size: 17px;&quot;&gt;&lt;span style=&quot;font-style: italic; font-size: 17px;&quot;&gt;CMessageType&lt;/span&gt;&lt;/pre&gt;&lt;/div&gt;" style="shape=partialRectangle;html=1;whiteSpace=wrap;connectable=0;fillColor=none;top=0;left=0;bottom=0;right=0;overflow=hidden;rounded=0;sketch=0;fontSize=17;strokeColor=#F0F0F0;fontColor=#FFFFFF;align=center;labelPosition=center;verticalLabelPosition=middle;verticalAlign=middle;labelBackgroundColor=none;" parent="Cg0Gd-JAqn2iNkRxokaa-40" vertex="1"><mxGeometry x="72" width="266" height="44" as="geometry"><mxRectangle width="266" height="44" as="alternateBounds"/></mxGeometry></mxCell><mxCell id="Cg0Gd-JAqn2iNkRxokaa-43" value="消费者消息类型" style="shape=partialRectangle;html=1;whiteSpace=wrap;connectable=0;fillColor=none;top=0;left=0;bottom=0;right=0;overflow=hidden;rounded=0;sketch=0;fontSize=17;strokeColor=#F0F0F0;fontColor=#FFFFFF;align=center;labelPosition=center;verticalLabelPosition=middle;verticalAlign=middle;labelBackgroundColor=none;" parent="Cg0Gd-JAqn2iNkRxokaa-40" vertex="1"><mxGeometry x="338" width="236" height="44" as="geometry"><mxRectangle width="236" height="44" as="alternateBounds"/></mxGeometry></mxCell><mxCell id="Cg0Gd-JAqn2iNkRxokaa-92" value="binary" style="shape=partialRectangle;html=1;whiteSpace=wrap;connectable=0;fillColor=none;top=0;left=0;bottom=0;right=0;overflow=hidden;rounded=0;sketch=0;fontSize=17;strokeColor=#F0F0F0;fontColor=#FFFFFF;align=center;labelPosition=center;verticalLabelPosition=middle;verticalAlign=middle;labelBackgroundColor=none;" parent="Cg0Gd-JAqn2iNkRxokaa-40" vertex="1"><mxGeometry x="574" width="236" height="44" as="geometry"><mxRectangle width="236" height="44" as="alternateBounds"/></mxGeometry></mxCell><mxCell id="jtx8YUKIoFRYlrF7leEJ-43" value="MessageResponse (json)" style="shape=table;startSize=60;container=1;collapsible=0;childLayout=tableLayout;fontStyle=1;align=center;rounded=0;sketch=0;fontSize=24;fillColor=#66B2FF;" parent="1" vertex="1"><mxGeometry x="120" y="1110" width="870" height="380" as="geometry"/></mxCell><mxCell id="jtx8YUKIoFRYlrF7leEJ-44" style="shape=tableRow;horizontal=0;startSize=0;swimlaneHead=0;swimlaneBody=0;top=0;left=0;bottom=0;right=0;collapsible=0;dropTarget=0;fillColor=none;points=[[0,0.5],[1,0.5]];portConstraint=eastwest;rounded=0;sketch=0;fontSize=17;" parent="jtx8YUKIoFRYlrF7leEJ-43" vertex="1"><mxGeometry y="60" width="870" height="61" as="geometry"/></mxCell><mxCell id="jtx8YUKIoFRYlrF7leEJ-45" value="字段顺序" style="shape=partialRectangle;html=1;whiteSpace=wrap;connectable=0;fillColor=none;top=0;left=0;bottom=0;right=0;overflow=hidden;rounded=0;sketch=0;fontSize=17;" parent="jtx8YUKIoFRYlrF7leEJ-44" vertex="1"><mxGeometry width="100" height="61" as="geometry"><mxRectangle width="100" height="61" as="alternateBounds"/></mxGeometry></mxCell><mxCell id="jtx8YUKIoFRYlrF7leEJ-46" value="字段名称" style="shape=partialRectangle;html=1;whiteSpace=wrap;connectable=0;fillColor=none;top=0;left=0;bottom=0;right=0;overflow=hidden;rounded=0;sketch=0;fontSize=17;strokeColor=#F0F0F0;fontColor=#FFFFFF;align=center;labelPosition=center;verticalLabelPosition=middle;verticalAlign=middle;labelBackgroundColor=none;" parent="jtx8YUKIoFRYlrF7leEJ-44" vertex="1"><mxGeometry x="100" width="238" height="61" as="geometry"><mxRectangle width="238" height="61" as="alternateBounds"/></mxGeometry></mxCell><mxCell id="jtx8YUKIoFRYlrF7leEJ-47" value="类型" style="shape=partialRectangle;html=1;whiteSpace=wrap;connectable=0;fillColor=none;top=0;left=0;bottom=0;right=0;overflow=hidden;rounded=0;sketch=0;fontSize=17;strokeColor=#F0F0F0;fontColor=#FFFFFF;align=center;labelPosition=center;verticalLabelPosition=middle;verticalAlign=middle;labelBackgroundColor=none;" parent="jtx8YUKIoFRYlrF7leEJ-44" vertex="1"><mxGeometry x="338" width="236" height="61" as="geometry"><mxRectangle width="236" height="61" as="alternateBounds"/></mxGeometry></mxCell><mxCell id="jtx8YUKIoFRYlrF7leEJ-48" value="含义" style="shape=partialRectangle;html=1;whiteSpace=wrap;connectable=0;fillColor=none;top=0;left=0;bottom=0;right=0;overflow=hidden;rounded=0;sketch=0;fontSize=17;strokeColor=#F0F0F0;fontColor=#FFFFFF;align=center;labelPosition=center;verticalLabelPosition=middle;verticalAlign=middle;labelBackgroundColor=none;" parent="jtx8YUKIoFRYlrF7leEJ-44" vertex="1"><mxGeometry x="574" width="296" height="61" as="geometry"><mxRectangle width="296" height="61" as="alternateBounds"/></mxGeometry></mxCell><mxCell id="jtx8YUKIoFRYlrF7leEJ-49" value="" style="shape=tableRow;horizontal=0;startSize=0;swimlaneHead=0;swimlaneBody=0;top=0;left=0;bottom=0;right=0;collapsible=0;dropTarget=0;fillColor=none;points=[[0,0.5],[1,0.5]];portConstraint=eastwest;rounded=0;sketch=0;fontSize=17;" parent="jtx8YUKIoFRYlrF7leEJ-43" vertex="1"><mxGeometry y="121" width="870" height="60" as="geometry"/></mxCell><mxCell id="jtx8YUKIoFRYlrF7leEJ-50" value="0" style="shape=partialRectangle;html=1;whiteSpace=wrap;connectable=0;fillColor=none;top=0;left=0;bottom=0;right=0;overflow=hidden;rounded=0;sketch=0;fontSize=17;" parent="jtx8YUKIoFRYlrF7leEJ-49" vertex="1"><mxGeometry width="100" height="60" as="geometry"><mxRectangle width="100" height="60" as="alternateBounds"/></mxGeometry></mxCell><mxCell id="jtx8YUKIoFRYlrF7leEJ-51" value="&lt;div style=&quot;font-size: 17px;&quot;&gt;&lt;pre style=&quot;font-family: &amp;quot;JetBrains Mono&amp;quot;, monospace; font-size: 17px;&quot;&gt;&lt;span style=&quot;font-style: italic; font-size: 17px;&quot;&gt;&lt;font style=&quot;font-size: 17px;&quot;&gt;status&lt;/font&gt;&lt;/span&gt;&lt;/pre&gt;&lt;/div&gt;" style="shape=partialRectangle;html=1;whiteSpace=wrap;connectable=0;fillColor=none;top=0;left=0;bottom=0;right=0;overflow=hidden;rounded=0;sketch=0;fontSize=17;strokeColor=#F0F0F0;fontColor=#FFFFFF;align=center;labelPosition=center;verticalLabelPosition=middle;verticalAlign=middle;labelBackgroundColor=none;" parent="jtx8YUKIoFRYlrF7leEJ-49" vertex="1"><mxGeometry x="100" width="238" height="60" as="geometry"><mxRectangle width="238" height="60" as="alternateBounds"/></mxGeometry></mxCell><mxCell id="jtx8YUKIoFRYlrF7leEJ-52" value="Status" style="shape=partialRectangle;html=1;whiteSpace=wrap;connectable=0;fillColor=none;top=0;left=0;bottom=0;right=0;overflow=hidden;rounded=0;sketch=0;fontSize=17;strokeColor=#F0F0F0;fontColor=#FFFFFF;align=center;labelPosition=center;verticalLabelPosition=middle;verticalAlign=middle;labelBackgroundColor=none;" parent="jtx8YUKIoFRYlrF7leEJ-49" vertex="1"><mxGeometry x="338" width="236" height="60" as="geometry"><mxRectangle width="236" height="60" as="alternateBounds"/></mxGeometry></mxCell><mxCell id="jtx8YUKIoFRYlrF7leEJ-53" value="状态码" style="shape=partialRectangle;html=1;whiteSpace=wrap;connectable=0;fillColor=none;top=0;left=0;bottom=0;right=0;overflow=hidden;rounded=0;sketch=0;fontSize=17;strokeColor=#F0F0F0;fontColor=#FFFFFF;align=center;labelPosition=center;verticalLabelPosition=middle;verticalAlign=middle;labelBackgroundColor=none;" parent="jtx8YUKIoFRYlrF7leEJ-49" vertex="1"><mxGeometry x="574" width="296" height="60" as="geometry"><mxRectangle width="296" height="60" as="alternateBounds"/></mxGeometry></mxCell><mxCell id="jtx8YUKIoFRYlrF7leEJ-54" value="" style="shape=tableRow;horizontal=0;startSize=0;swimlaneHead=0;swimlaneBody=0;top=0;left=0;bottom=0;right=0;collapsible=0;dropTarget=0;fillColor=none;points=[[0,0.5],[1,0.5]];portConstraint=eastwest;rounded=0;sketch=0;fontSize=17;" parent="jtx8YUKIoFRYlrF7leEJ-43" vertex="1"><mxGeometry y="181" width="870" height="65" as="geometry"/></mxCell><mxCell id="jtx8YUKIoFRYlrF7leEJ-55" value="1" style="shape=partialRectangle;html=1;whiteSpace=wrap;connectable=0;fillColor=none;top=0;left=0;bottom=0;right=0;overflow=hidden;rounded=0;sketch=0;fontSize=17;" parent="jtx8YUKIoFRYlrF7leEJ-54" vertex="1"><mxGeometry width="100" height="65" as="geometry"><mxRectangle width="100" height="65" as="alternateBounds"/></mxGeometry></mxCell><mxCell id="jtx8YUKIoFRYlrF7leEJ-56" value="&lt;div style=&quot;font-size: 17px;&quot;&gt;&lt;pre style=&quot;font-family: &amp;quot;JetBrains Mono&amp;quot;, monospace; font-size: 17px;&quot;&gt;&lt;i&gt;offset&lt;/i&gt;&lt;/pre&gt;&lt;/div&gt;" style="shape=partialRectangle;html=1;whiteSpace=wrap;connectable=0;fillColor=none;top=0;left=0;bottom=0;right=0;overflow=hidden;rounded=0;sketch=0;fontSize=17;strokeColor=#F0F0F0;fontColor=#FFFFFF;align=center;labelPosition=center;verticalLabelPosition=middle;verticalAlign=middle;labelBackgroundColor=none;" parent="jtx8YUKIoFRYlrF7leEJ-54" vertex="1"><mxGeometry x="100" width="238" height="65" as="geometry"><mxRectangle width="238" height="65" as="alternateBounds"/></mxGeometry></mxCell><mxCell id="jtx8YUKIoFRYlrF7leEJ-57" value="uint64" style="shape=partialRectangle;html=1;whiteSpace=wrap;connectable=0;fillColor=none;top=0;left=0;bottom=0;right=0;overflow=hidden;rounded=0;sketch=0;fontSize=17;strokeColor=#F0F0F0;fontColor=#FFFFFF;align=center;labelPosition=center;verticalLabelPosition=middle;verticalAlign=middle;labelBackgroundColor=none;" parent="jtx8YUKIoFRYlrF7leEJ-54" vertex="1"><mxGeometry x="338" width="236" height="65" as="geometry"><mxRectangle width="236" height="65" as="alternateBounds"/></mxGeometry></mxCell><mxCell id="jtx8YUKIoFRYlrF7leEJ-58" value="服务器消息唯一偏移量" style="shape=partialRectangle;html=1;whiteSpace=wrap;connectable=0;fillColor=none;top=0;left=0;bottom=0;right=0;overflow=hidden;rounded=0;sketch=0;fontSize=17;strokeColor=#F0F0F0;fontColor=#FFFFFF;align=center;labelPosition=center;verticalLabelPosition=middle;verticalAlign=middle;labelBackgroundColor=none;" parent="jtx8YUKIoFRYlrF7leEJ-54" vertex="1"><mxGeometry x="574" width="296" height="65" as="geometry"><mxRectangle width="296" height="65" as="alternateBounds"/></mxGeometry></mxCell><mxCell id="jtx8YUKIoFRYlrF7leEJ-59" value="" style="shape=tableRow;horizontal=0;startSize=0;swimlaneHead=0;swimlaneBody=0;top=0;left=0;bottom=0;right=0;collapsible=0;dropTarget=0;fillColor=none;points=[[0,0.5],[1,0.5]];portConstraint=eastwest;rounded=0;sketch=0;fontSize=17;" parent="jtx8YUKIoFRYlrF7leEJ-43" vertex="1"><mxGeometry y="246" width="870" height="67" as="geometry"/></mxCell><mxCell id="jtx8YUKIoFRYlrF7leEJ-60" value="2" style="shape=partialRectangle;html=1;whiteSpace=wrap;connectable=0;fillColor=none;top=0;left=0;bottom=0;right=0;overflow=hidden;rounded=0;sketch=0;fontSize=17;" parent="jtx8YUKIoFRYlrF7leEJ-59" vertex="1"><mxGeometry width="100" height="67" as="geometry"><mxRectangle width="100" height="67" as="alternateBounds"/></mxGeometry></mxCell><mxCell id="jtx8YUKIoFRYlrF7leEJ-61" value="&lt;div style=&quot;font-size: 17px;&quot;&gt;&lt;pre style=&quot;font-family: &amp;quot;JetBrains Mono&amp;quot;, monospace; font-size: 17px;&quot;&gt;receive_time&lt;/pre&gt;&lt;/div&gt;" style="shape=partialRectangle;html=1;whiteSpace=wrap;connectable=0;fillColor=none;top=0;left=0;bottom=0;right=0;overflow=hidden;rounded=0;sketch=0;fontSize=17;strokeColor=#F0F0F0;fontColor=#FFFFFF;align=center;labelPosition=center;verticalLabelPosition=middle;verticalAlign=middle;labelBackgroundColor=none;" parent="jtx8YUKIoFRYlrF7leEJ-59" vertex="1"><mxGeometry x="100" width="238" height="67" as="geometry"><mxRectangle width="238" height="67" as="alternateBounds"/></mxGeometry></mxCell><mxCell id="jtx8YUKIoFRYlrF7leEJ-62" value="datetime" style="shape=partialRectangle;html=1;whiteSpace=wrap;connectable=0;fillColor=none;top=0;left=0;bottom=0;right=0;overflow=hidden;rounded=0;sketch=0;fontSize=17;strokeColor=#F0F0F0;fontColor=#FFFFFF;align=center;labelPosition=center;verticalLabelPosition=middle;verticalAlign=middle;labelBackgroundColor=none;" parent="jtx8YUKIoFRYlrF7leEJ-59" vertex="1"><mxGeometry x="338" width="236" height="67" as="geometry"><mxRectangle width="236" height="67" as="alternateBounds"/></mxGeometry></mxCell><mxCell id="jtx8YUKIoFRYlrF7leEJ-63" value="服务器接收到此消息的时间" style="shape=partialRectangle;html=1;whiteSpace=wrap;connectable=0;fillColor=none;top=0;left=0;bottom=0;right=0;overflow=hidden;rounded=0;sketch=0;fontSize=17;strokeColor=#F0F0F0;fontColor=#FFFFFF;align=center;labelPosition=center;verticalLabelPosition=middle;verticalAlign=middle;labelBackgroundColor=none;" parent="jtx8YUKIoFRYlrF7leEJ-59" vertex="1"><mxGeometry x="574" width="296" height="67" as="geometry"><mxRectangle width="296" height="67" as="alternateBounds"/></mxGeometry></mxCell><mxCell id="jtx8YUKIoFRYlrF7leEJ-64" value="" style="shape=tableRow;horizontal=0;startSize=0;swimlaneHead=0;swimlaneBody=0;top=0;left=0;bottom=0;right=0;collapsible=0;dropTarget=0;fillColor=none;points=[[0,0.5],[1,0.5]];portConstraint=eastwest;rounded=0;sketch=0;fontSize=17;" parent="jtx8YUKIoFRYlrF7leEJ-43" vertex="1"><mxGeometry y="313" width="870" height="67" as="geometry"/></mxCell><mxCell id="jtx8YUKIoFRYlrF7leEJ-65" value="3" style="shape=partialRectangle;html=1;whiteSpace=wrap;connectable=0;fillColor=none;top=0;left=0;bottom=0;right=0;overflow=hidden;rounded=0;sketch=0;fontSize=17;" parent="jtx8YUKIoFRYlrF7leEJ-64" vertex="1"><mxGeometry width="100" height="67" as="geometry"><mxRectangle width="100" height="67" as="alternateBounds"/></mxGeometry></mxCell><mxCell id="jtx8YUKIoFRYlrF7leEJ-66" value="&lt;div style=&quot;font-size: 17px;&quot;&gt;&lt;pre style=&quot;font-family: &amp;quot;JetBrains Mono&amp;quot;, monospace; font-size: 17px;&quot;&gt;&lt;span style=&quot;font-style: italic; font-size: 17px;&quot;&gt;ticker_duration&lt;/span&gt;&lt;/pre&gt;&lt;/div&gt;" style="shape=partialRectangle;html=1;whiteSpace=wrap;connectable=0;fillColor=none;top=0;left=0;bottom=0;right=0;overflow=hidden;rounded=0;sketch=0;fontSize=17;strokeColor=#F0F0F0;fontColor=#FFFFFF;align=center;labelPosition=center;verticalLabelPosition=middle;verticalAlign=middle;labelBackgroundColor=none;" parent="jtx8YUKIoFRYlrF7leEJ-64" vertex="1"><mxGeometry x="100" width="238" height="67" as="geometry"><mxRectangle width="238" height="67" as="alternateBounds"/></mxGeometry></mxCell><mxCell id="jtx8YUKIoFRYlrF7leEJ-67" value="int" style="shape=partialRectangle;html=1;whiteSpace=wrap;connectable=0;fillColor=none;top=0;left=0;bottom=0;right=0;overflow=hidden;rounded=0;sketch=0;fontSize=17;strokeColor=#F0F0F0;fontColor=#FFFFFF;align=center;labelPosition=center;verticalLabelPosition=middle;verticalAlign=middle;labelBackgroundColor=none;" parent="jtx8YUKIoFRYlrF7leEJ-64" vertex="1"><mxGeometry x="338" width="236" height="67" as="geometry"><mxRectangle width="236" height="67" as="alternateBounds"/></mxGeometry></mxCell><mxCell id="jtx8YUKIoFRYlrF7leEJ-68" value="生产者定时器间隔，ms,生产者需要哦按照此间隔定时发送消息" style="shape=partialRectangle;html=1;whiteSpace=wrap;connectable=0;fillColor=none;top=0;left=0;bottom=0;right=0;overflow=hidden;rounded=0;sketch=0;fontSize=17;strokeColor=#F0F0F0;fontColor=#FFFFFF;align=center;labelPosition=center;verticalLabelPosition=middle;verticalAlign=middle;labelBackgroundColor=none;" parent="jtx8YUKIoFRYlrF7leEJ-64" vertex="1"><mxGeometry x="574" width="296" height="67" as="geometry"><mxRectangle width="296" height="67" as="alternateBounds"/></mxGeometry></mxCell><mxCell id="jtx8YUKIoFRYlrF7leEJ-85" value="ACK" style="shape=table;startSize=50;container=1;collapsible=0;childLayout=tableLayout;fontStyle=1;align=center;rounded=0;labelBackgroundColor=none;sketch=0;strokeColor=#F0F0F0;fontSize=24;fontColor=#FFFFFF;fillColor=#66B2FF;" parent="1" vertex="1"><mxGeometry x="1210" y="520" width="780" height="411" as="geometry"/></mxCell><mxCell id="jtx8YUKIoFRYlrF7leEJ-183" style="shape=tableRow;horizontal=0;startSize=0;swimlaneHead=0;swimlaneBody=0;top=0;left=0;bottom=0;right=0;collapsible=0;dropTarget=0;fillColor=none;points=[[0,0.5],[1,0.5]];portConstraint=eastwest;rounded=0;labelBackgroundColor=none;sketch=0;strokeColor=#F0F0F0;fontSize=24;fontColor=#FFFFFF;" parent="jtx8YUKIoFRYlrF7leEJ-85" vertex="1"><mxGeometry y="50" width="780" height="91" as="geometry"/></mxCell><mxCell id="jtx8YUKIoFRYlrF7leEJ-184" value="取值" style="shape=partialRectangle;html=1;whiteSpace=wrap;connectable=0;fillColor=none;top=0;left=0;bottom=0;right=0;overflow=hidden;rounded=0;labelBackgroundColor=none;sketch=0;strokeColor=#F0F0F0;fontSize=24;fontColor=#FFFFFF;" parent="jtx8YUKIoFRYlrF7leEJ-183" vertex="1"><mxGeometry width="80" height="91" as="geometry"><mxRectangle width="80" height="91" as="alternateBounds"/></mxGeometry></mxCell><mxCell id="jtx8YUKIoFRYlrF7leEJ-194" value="名称" style="shape=partialRectangle;html=1;whiteSpace=wrap;connectable=0;fillColor=none;top=0;left=0;bottom=0;right=0;overflow=hidden;rounded=0;labelBackgroundColor=none;sketch=0;strokeColor=#F0F0F0;fontSize=24;fontColor=#FFFFFF;" parent="jtx8YUKIoFRYlrF7leEJ-183" vertex="1"><mxGeometry x="80" width="350" height="91" as="geometry"><mxRectangle width="350" height="91" as="alternateBounds"/></mxGeometry></mxCell><mxCell id="jtx8YUKIoFRYlrF7leEJ-185" value="含义" style="shape=partialRectangle;html=1;whiteSpace=wrap;connectable=0;fillColor=none;top=0;left=0;bottom=0;right=0;overflow=hidden;rounded=0;labelBackgroundColor=none;sketch=0;strokeColor=#F0F0F0;fontSize=24;fontColor=#FFFFFF;" parent="jtx8YUKIoFRYlrF7leEJ-183" vertex="1"><mxGeometry x="430" width="350" height="91" as="geometry"><mxRectangle width="350" height="91" as="alternateBounds"/></mxGeometry></mxCell><mxCell id="jtx8YUKIoFRYlrF7leEJ-86" value="" style="shape=tableRow;horizontal=0;startSize=0;swimlaneHead=0;swimlaneBody=0;top=0;left=0;bottom=0;right=0;collapsible=0;dropTarget=0;fillColor=none;points=[[0,0.5],[1,0.5]];portConstraint=eastwest;rounded=0;labelBackgroundColor=none;sketch=0;strokeColor=#F0F0F0;fontSize=24;fontColor=#FFFFFF;" parent="jtx8YUKIoFRYlrF7leEJ-85" vertex="1"><mxGeometry y="141" width="780" height="91" as="geometry"/></mxCell><mxCell id="jtx8YUKIoFRYlrF7leEJ-87" value="&quot;0&quot;" style="shape=partialRectangle;html=1;whiteSpace=wrap;connectable=0;fillColor=none;top=0;left=0;bottom=0;right=0;overflow=hidden;rounded=0;labelBackgroundColor=none;sketch=0;strokeColor=#F0F0F0;fontSize=24;fontColor=#FFFFFF;" parent="jtx8YUKIoFRYlrF7leEJ-86" vertex="1"><mxGeometry width="80" height="91" as="geometry"><mxRectangle width="80" height="91" as="alternateBounds"/></mxGeometry></mxCell><mxCell id="jtx8YUKIoFRYlrF7leEJ-195" value="NoConfirm" style="shape=partialRectangle;html=1;whiteSpace=wrap;connectable=0;fillColor=none;top=0;left=0;bottom=0;right=0;overflow=hidden;rounded=0;labelBackgroundColor=none;sketch=0;strokeColor=#F0F0F0;fontSize=24;fontColor=#FFFFFF;" parent="jtx8YUKIoFRYlrF7leEJ-86" vertex="1"><mxGeometry x="80" width="350" height="91" as="geometry"><mxRectangle width="350" height="91" as="alternateBounds"/></mxGeometry></mxCell><mxCell id="jtx8YUKIoFRYlrF7leEJ-88" value="不需要FIN响应" style="shape=partialRectangle;html=1;whiteSpace=wrap;connectable=0;fillColor=none;top=0;left=0;bottom=0;right=0;overflow=hidden;rounded=0;labelBackgroundColor=none;sketch=0;strokeColor=#F0F0F0;fontSize=24;fontColor=#FFFFFF;" parent="jtx8YUKIoFRYlrF7leEJ-86" vertex="1"><mxGeometry x="430" width="350" height="91" as="geometry"><mxRectangle width="350" height="91" as="alternateBounds"/></mxGeometry></mxCell><mxCell id="jtx8YUKIoFRYlrF7leEJ-90" value="" style="shape=tableRow;horizontal=0;startSize=0;swimlaneHead=0;swimlaneBody=0;top=0;left=0;bottom=0;right=0;collapsible=0;dropTarget=0;fillColor=none;points=[[0,0.5],[1,0.5]];portConstraint=eastwest;rounded=0;labelBackgroundColor=none;sketch=0;strokeColor=#F0F0F0;fontSize=24;fontColor=#FFFFFF;" parent="jtx8YUKIoFRYlrF7leEJ-85" vertex="1"><mxGeometry y="232" width="780" height="88" as="geometry"/></mxCell><mxCell id="jtx8YUKIoFRYlrF7leEJ-91" value="&quot;1&quot;" style="shape=partialRectangle;html=1;whiteSpace=wrap;connectable=0;fillColor=none;top=0;left=0;bottom=0;right=0;overflow=hidden;rounded=0;labelBackgroundColor=none;sketch=0;strokeColor=#F0F0F0;fontSize=24;fontColor=#FFFFFF;" parent="jtx8YUKIoFRYlrF7leEJ-90" vertex="1"><mxGeometry width="80" height="88" as="geometry"><mxRectangle width="80" height="88" as="alternateBounds"/></mxGeometry></mxCell><mxCell id="jtx8YUKIoFRYlrF7leEJ-196" value="Confirm" style="shape=partialRectangle;html=1;whiteSpace=wrap;connectable=0;fillColor=none;top=0;left=0;bottom=0;right=0;overflow=hidden;rounded=0;labelBackgroundColor=none;sketch=0;strokeColor=#F0F0F0;fontSize=24;fontColor=#FFFFFF;" parent="jtx8YUKIoFRYlrF7leEJ-90" vertex="1"><mxGeometry x="80" width="350" height="88" as="geometry"><mxRectangle width="350" height="88" as="alternateBounds"/></mxGeometry></mxCell><mxCell id="jtx8YUKIoFRYlrF7leEJ-92" value="需要FIN响应，但是不需要每一个ACK都有一个FIN" style="shape=partialRectangle;html=1;whiteSpace=wrap;connectable=0;fillColor=none;top=0;left=0;bottom=0;right=0;overflow=hidden;rounded=0;labelBackgroundColor=none;sketch=0;strokeColor=#F0F0F0;fontSize=24;fontColor=#FFFFFF;" parent="jtx8YUKIoFRYlrF7leEJ-90" vertex="1"><mxGeometry x="430" width="350" height="88" as="geometry"><mxRectangle width="350" height="88" as="alternateBounds"/></mxGeometry></mxCell><mxCell id="jtx8YUKIoFRYlrF7leEJ-94" value="" style="shape=tableRow;horizontal=0;startSize=0;swimlaneHead=0;swimlaneBody=0;top=0;left=0;bottom=0;right=0;collapsible=0;dropTarget=0;fillColor=none;points=[[0,0.5],[1,0.5]];portConstraint=eastwest;rounded=0;labelBackgroundColor=none;sketch=0;strokeColor=#F0F0F0;fontSize=24;fontColor=#FFFFFF;" parent="jtx8YUKIoFRYlrF7leEJ-85" vertex="1"><mxGeometry y="320" width="780" height="91" as="geometry"/></mxCell><mxCell id="jtx8YUKIoFRYlrF7leEJ-95" value="&quot;all&quot;" style="shape=partialRectangle;html=1;whiteSpace=wrap;connectable=0;fillColor=none;top=0;left=0;bottom=0;right=0;overflow=hidden;rounded=0;labelBackgroundColor=none;sketch=0;strokeColor=#F0F0F0;fontSize=24;fontColor=#FFFFFF;" parent="jtx8YUKIoFRYlrF7leEJ-94" vertex="1"><mxGeometry width="80" height="91" as="geometry"><mxRectangle width="80" height="91" as="alternateBounds"/></mxGeometry></mxCell><mxCell id="jtx8YUKIoFRYlrF7leEJ-197" value="AllConfirm" style="shape=partialRectangle;html=1;whiteSpace=wrap;connectable=0;fillColor=none;top=0;left=0;bottom=0;right=0;overflow=hidden;rounded=0;labelBackgroundColor=none;sketch=0;strokeColor=#F0F0F0;fontSize=24;fontColor=#FFFFFF;" parent="jtx8YUKIoFRYlrF7leEJ-94" vertex="1"><mxGeometry x="80" width="350" height="91" as="geometry"><mxRectangle width="350" height="91" as="alternateBounds"/></mxGeometry></mxCell><mxCell id="jtx8YUKIoFRYlrF7leEJ-96" value="需要FIN响应，且每一个ACK都需有一个FIN" style="shape=partialRectangle;html=1;whiteSpace=wrap;connectable=0;fillColor=none;top=0;left=0;bottom=0;right=0;overflow=hidden;rounded=0;labelBackgroundColor=none;sketch=0;strokeColor=#F0F0F0;fontSize=24;fontColor=#FFFFFF;" parent="jtx8YUKIoFRYlrF7leEJ-94" vertex="1"><mxGeometry x="430" width="350" height="91" as="geometry"><mxRectangle width="350" height="91" as="alternateBounds"/></mxGeometry></mxCell><mxCell id="jtx8YUKIoFRYlrF7leEJ-112" value="RegisterMessageType (json)" style="shape=table;startSize=60;container=1;collapsible=0;childLayout=tableLayout;fontStyle=1;align=center;rounded=0;sketch=0;fontSize=24;fillColor=#66B2FF;" parent="1" vertex="1"><mxGeometry x="120" y="570" width="870" height="264" as="geometry"/></mxCell><mxCell id="jtx8YUKIoFRYlrF7leEJ-113" style="shape=tableRow;horizontal=0;startSize=0;swimlaneHead=0;swimlaneBody=0;top=0;left=0;bottom=0;right=0;collapsible=0;dropTarget=0;fillColor=none;points=[[0,0.5],[1,0.5]];portConstraint=eastwest;rounded=0;sketch=0;fontSize=17;" parent="jtx8YUKIoFRYlrF7leEJ-112" vertex="1"><mxGeometry y="60" width="870" height="39" as="geometry"/></mxCell><mxCell id="jtx8YUKIoFRYlrF7leEJ-114" value="字段顺序" style="shape=partialRectangle;html=1;whiteSpace=wrap;connectable=0;fillColor=none;top=0;left=0;bottom=0;right=0;overflow=hidden;rounded=0;sketch=0;fontSize=17;" parent="jtx8YUKIoFRYlrF7leEJ-113" vertex="1"><mxGeometry width="100" height="39" as="geometry"><mxRectangle width="100" height="39" as="alternateBounds"/></mxGeometry></mxCell><mxCell id="jtx8YUKIoFRYlrF7leEJ-115" value="字段名称" style="shape=partialRectangle;html=1;whiteSpace=wrap;connectable=0;fillColor=none;top=0;left=0;bottom=0;right=0;overflow=hidden;rounded=0;sketch=0;fontSize=17;strokeColor=#F0F0F0;fontColor=#FFFFFF;align=center;labelPosition=center;verticalLabelPosition=middle;verticalAlign=middle;labelBackgroundColor=none;" parent="jtx8YUKIoFRYlrF7leEJ-113" vertex="1"><mxGeometry x="100" width="238" height="39" as="geometry"><mxRectangle width="238" height="39" as="alternateBounds"/></mxGeometry></mxCell><mxCell id="jtx8YUKIoFRYlrF7leEJ-116" value="类型" style="shape=partialRectangle;html=1;whiteSpace=wrap;connectable=0;fillColor=none;top=0;left=0;bottom=0;right=0;overflow=hidden;rounded=0;sketch=0;fontSize=17;strokeColor=#F0F0F0;fontColor=#FFFFFF;align=center;labelPosition=center;verticalLabelPosition=middle;verticalAlign=middle;labelBackgroundColor=none;" parent="jtx8YUKIoFRYlrF7leEJ-113" vertex="1"><mxGeometry x="338" width="236" height="39" as="geometry"><mxRectangle width="236" height="39" as="alternateBounds"/></mxGeometry></mxCell><mxCell id="jtx8YUKIoFRYlrF7leEJ-117" value="含义" style="shape=partialRectangle;html=1;whiteSpace=wrap;connectable=0;fillColor=none;top=0;left=0;bottom=0;right=0;overflow=hidden;rounded=0;sketch=0;fontSize=17;strokeColor=#F0F0F0;fontColor=#FFFFFF;align=center;labelPosition=center;verticalLabelPosition=middle;verticalAlign=middle;labelBackgroundColor=none;" parent="jtx8YUKIoFRYlrF7leEJ-113" vertex="1"><mxGeometry x="574" width="296" height="39" as="geometry"><mxRectangle width="296" height="39" as="alternateBounds"/></mxGeometry></mxCell><mxCell id="jtx8YUKIoFRYlrF7leEJ-118" value="" style="shape=tableRow;horizontal=0;startSize=0;swimlaneHead=0;swimlaneBody=0;top=0;left=0;bottom=0;right=0;collapsible=0;dropTarget=0;fillColor=none;points=[[0,0.5],[1,0.5]];portConstraint=eastwest;rounded=0;sketch=0;fontSize=17;" parent="jtx8YUKIoFRYlrF7leEJ-112" vertex="1"><mxGeometry y="99" width="870" height="38" as="geometry"/></mxCell><mxCell id="jtx8YUKIoFRYlrF7leEJ-119" value="0" style="shape=partialRectangle;html=1;whiteSpace=wrap;connectable=0;fillColor=none;top=0;left=0;bottom=0;right=0;overflow=hidden;rounded=0;sketch=0;fontSize=17;" parent="jtx8YUKIoFRYlrF7leEJ-118" vertex="1"><mxGeometry width="100" height="38" as="geometry"><mxRectangle width="100" height="38" as="alternateBounds"/></mxGeometry></mxCell><mxCell id="jtx8YUKIoFRYlrF7leEJ-120" value="&lt;div style=&quot;font-size: 17px;&quot;&gt;&lt;pre style=&quot;font-family: &amp;quot;JetBrains Mono&amp;quot;, monospace; font-size: 17px;&quot;&gt;&lt;span style=&quot;font-style: italic; font-size: 17px;&quot;&gt;&lt;font style=&quot;font-size: 17px;&quot;&gt;topics&lt;/font&gt;&lt;/span&gt;&lt;/pre&gt;&lt;/div&gt;" style="shape=partialRectangle;html=1;whiteSpace=wrap;connectable=0;fillColor=none;top=0;left=0;bottom=0;right=0;overflow=hidden;rounded=0;sketch=0;fontSize=17;strokeColor=#F0F0F0;fontColor=#FFFFFF;align=center;labelPosition=center;verticalLabelPosition=middle;verticalAlign=middle;labelBackgroundColor=none;" parent="jtx8YUKIoFRYlrF7leEJ-118" vertex="1"><mxGeometry x="100" width="238" height="38" as="geometry"><mxRectangle width="238" height="38" as="alternateBounds"/></mxGeometry></mxCell><mxCell id="jtx8YUKIoFRYlrF7leEJ-121" value="list[string]" style="shape=partialRectangle;html=1;whiteSpace=wrap;connectable=0;fillColor=none;top=0;left=0;bottom=0;right=0;overflow=hidden;rounded=0;sketch=0;fontSize=17;strokeColor=#F0F0F0;fontColor=#FFFFFF;align=center;labelPosition=center;verticalLabelPosition=middle;verticalAlign=middle;labelBackgroundColor=none;" parent="jtx8YUKIoFRYlrF7leEJ-118" vertex="1"><mxGeometry x="338" width="236" height="38" as="geometry"><mxRectangle width="236" height="38" as="alternateBounds"/></mxGeometry></mxCell><mxCell id="jtx8YUKIoFRYlrF7leEJ-122" value="监听的topic,仅消费者有效" style="shape=partialRectangle;html=1;whiteSpace=wrap;connectable=0;fillColor=none;top=0;left=0;bottom=0;right=0;overflow=hidden;rounded=0;sketch=0;fontSize=17;strokeColor=#F0F0F0;fontColor=#FFFFFF;align=center;labelPosition=center;verticalLabelPosition=middle;verticalAlign=middle;labelBackgroundColor=none;" parent="jtx8YUKIoFRYlrF7leEJ-118" vertex="1"><mxGeometry x="574" width="296" height="38" as="geometry"><mxRectangle width="296" height="38" as="alternateBounds"/></mxGeometry></mxCell><mxCell id="jtx8YUKIoFRYlrF7leEJ-123" value="" style="shape=tableRow;horizontal=0;startSize=0;swimlaneHead=0;swimlaneBody=0;top=0;left=0;bottom=0;right=0;collapsible=0;dropTarget=0;fillColor=none;points=[[0,0.5],[1,0.5]];portConstraint=eastwest;rounded=0;sketch=0;fontSize=17;" parent="jtx8YUKIoFRYlrF7leEJ-112" vertex="1"><mxGeometry y="137" width="870" height="42" as="geometry"/></mxCell><mxCell id="jtx8YUKIoFRYlrF7leEJ-124" value="1" style="shape=partialRectangle;html=1;whiteSpace=wrap;connectable=0;fillColor=none;top=0;left=0;bottom=0;right=0;overflow=hidden;rounded=0;sketch=0;fontSize=17;" parent="jtx8YUKIoFRYlrF7leEJ-123" vertex="1"><mxGeometry width="100" height="42" as="geometry"><mxRectangle width="100" height="42" as="alternateBounds"/></mxGeometry></mxCell><mxCell id="jtx8YUKIoFRYlrF7leEJ-125" value="&lt;div style=&quot;font-size: 17px;&quot;&gt;&lt;pre style=&quot;font-family: &amp;quot;JetBrains Mono&amp;quot;, monospace; font-size: 17px;&quot;&gt;&lt;i&gt;ack&lt;/i&gt;&lt;/pre&gt;&lt;/div&gt;" style="shape=partialRectangle;html=1;whiteSpace=wrap;connectable=0;fillColor=none;top=0;left=0;bottom=0;right=0;overflow=hidden;rounded=0;sketch=0;fontSize=17;strokeColor=#F0F0F0;fontColor=#FFFFFF;align=center;labelPosition=center;verticalLabelPosition=middle;verticalAlign=middle;labelBackgroundColor=none;" parent="jtx8YUKIoFRYlrF7leEJ-123" vertex="1"><mxGeometry x="100" width="238" height="42" as="geometry"><mxRectangle width="238" height="42" as="alternateBounds"/></mxGeometry></mxCell><mxCell id="jtx8YUKIoFRYlrF7leEJ-126" value="Enum[string]" style="shape=partialRectangle;html=1;whiteSpace=wrap;connectable=0;fillColor=none;top=0;left=0;bottom=0;right=0;overflow=hidden;rounded=0;sketch=0;fontSize=17;strokeColor=#F0F0F0;fontColor=#FFFFFF;align=center;labelPosition=center;verticalLabelPosition=middle;verticalAlign=middle;labelBackgroundColor=none;" parent="jtx8YUKIoFRYlrF7leEJ-123" vertex="1"><mxGeometry x="338" width="236" height="42" as="geometry"><mxRectangle width="236" height="42" as="alternateBounds"/></mxGeometry></mxCell><mxCell id="jtx8YUKIoFRYlrF7leEJ-127" value="是否需要ack响应Fin" style="shape=partialRectangle;html=1;whiteSpace=wrap;connectable=0;fillColor=none;top=0;left=0;bottom=0;right=0;overflow=hidden;rounded=0;sketch=0;fontSize=17;strokeColor=#F0F0F0;fontColor=#FFFFFF;align=center;labelPosition=center;verticalLabelPosition=middle;verticalAlign=middle;labelBackgroundColor=none;" parent="jtx8YUKIoFRYlrF7leEJ-123" vertex="1"><mxGeometry x="574" width="296" height="42" as="geometry"><mxRectangle width="296" height="42" as="alternateBounds"/></mxGeometry></mxCell><mxCell id="jtx8YUKIoFRYlrF7leEJ-128" value="" style="shape=tableRow;horizontal=0;startSize=0;swimlaneHead=0;swimlaneBody=0;top=0;left=0;bottom=0;right=0;collapsible=0;dropTarget=0;fillColor=none;points=[[0,0.5],[1,0.5]];portConstraint=eastwest;rounded=0;sketch=0;fontSize=17;" parent="jtx8YUKIoFRYlrF7leEJ-112" vertex="1"><mxGeometry y="179" width="870" height="42" as="geometry"/></mxCell><mxCell id="jtx8YUKIoFRYlrF7leEJ-129" value="2" style="shape=partialRectangle;html=1;whiteSpace=wrap;connectable=0;fillColor=none;top=0;left=0;bottom=0;right=0;overflow=hidden;rounded=0;sketch=0;fontSize=17;" parent="jtx8YUKIoFRYlrF7leEJ-128" vertex="1"><mxGeometry width="100" height="42" as="geometry"><mxRectangle width="100" height="42" as="alternateBounds"/></mxGeometry></mxCell><mxCell id="jtx8YUKIoFRYlrF7leEJ-130" value="&lt;div style=&quot;font-size: 17px;&quot;&gt;&lt;pre style=&quot;font-family: &amp;quot;JetBrains Mono&amp;quot;, monospace; font-size: 17px;&quot;&gt;type&lt;/pre&gt;&lt;/div&gt;" style="shape=partialRectangle;html=1;whiteSpace=wrap;connectable=0;fillColor=none;top=0;left=0;bottom=0;right=0;overflow=hidden;rounded=0;sketch=0;fontSize=17;strokeColor=#F0F0F0;fontColor=#FFFFFF;align=center;labelPosition=center;verticalLabelPosition=middle;verticalAlign=middle;labelBackgroundColor=none;" parent="jtx8YUKIoFRYlrF7leEJ-128" vertex="1"><mxGeometry x="100" width="238" height="42" as="geometry"><mxRectangle width="238" height="42" as="alternateBounds"/></mxGeometry></mxCell><mxCell id="jtx8YUKIoFRYlrF7leEJ-131" value="Enum[string]" style="shape=partialRectangle;html=1;whiteSpace=wrap;connectable=0;fillColor=none;top=0;left=0;bottom=0;right=0;overflow=hidden;rounded=0;sketch=0;fontSize=17;strokeColor=#F0F0F0;fontColor=#FFFFFF;align=center;labelPosition=center;verticalLabelPosition=middle;verticalAlign=middle;labelBackgroundColor=none;" parent="jtx8YUKIoFRYlrF7leEJ-128" vertex="1"><mxGeometry x="338" width="236" height="42" as="geometry"><mxRectangle width="236" height="42" as="alternateBounds"/></mxGeometry></mxCell><mxCell id="jtx8YUKIoFRYlrF7leEJ-132" value="&quot;PRODUCER&quot; 或 &quot;CONSUMER&quot;" style="shape=partialRectangle;html=1;whiteSpace=wrap;connectable=0;fillColor=none;top=0;left=0;bottom=0;right=0;overflow=hidden;rounded=0;sketch=0;fontSize=17;strokeColor=#F0F0F0;fontColor=#FFFFFF;align=center;labelPosition=center;verticalLabelPosition=middle;verticalAlign=middle;labelBackgroundColor=none;" parent="jtx8YUKIoFRYlrF7leEJ-128" vertex="1"><mxGeometry x="574" width="296" height="42" as="geometry"><mxRectangle width="296" height="42" as="alternateBounds"/></mxGeometry></mxCell><mxCell id="jtx8YUKIoFRYlrF7leEJ-133" value="" style="shape=tableRow;horizontal=0;startSize=0;swimlaneHead=0;swimlaneBody=0;top=0;left=0;bottom=0;right=0;collapsible=0;dropTarget=0;fillColor=none;points=[[0,0.5],[1,0.5]];portConstraint=eastwest;rounded=0;sketch=0;fontSize=17;" parent="jtx8YUKIoFRYlrF7leEJ-112" vertex="1"><mxGeometry y="221" width="870" height="43" as="geometry"/></mxCell><mxCell id="jtx8YUKIoFRYlrF7leEJ-134" value="3" style="shape=partialRectangle;html=1;whiteSpace=wrap;connectable=0;fillColor=none;top=0;left=0;bottom=0;right=0;overflow=hidden;rounded=0;sketch=0;fontSize=17;" parent="jtx8YUKIoFRYlrF7leEJ-133" vertex="1"><mxGeometry width="100" height="43" as="geometry"><mxRectangle width="100" height="43" as="alternateBounds"/></mxGeometry></mxCell><mxCell id="jtx8YUKIoFRYlrF7leEJ-135" value="&lt;div style=&quot;font-size: 17px;&quot;&gt;&lt;pre style=&quot;font-family: &amp;quot;JetBrains Mono&amp;quot;, monospace; font-size: 17px;&quot;&gt;&lt;span style=&quot;font-style: italic; font-size: 17px;&quot;&gt;token&lt;/span&gt;&lt;/pre&gt;&lt;/div&gt;" style="shape=partialRectangle;html=1;whiteSpace=wrap;connectable=0;fillColor=none;top=0;left=0;bottom=0;right=0;overflow=hidden;rounded=0;sketch=0;fontSize=17;strokeColor=#F0F0F0;fontColor=#FFFFFF;align=center;labelPosition=center;verticalLabelPosition=middle;verticalAlign=middle;labelBackgroundColor=none;" parent="jtx8YUKIoFRYlrF7leEJ-133" vertex="1"><mxGeometry x="100" width="238" height="43" as="geometry"><mxRectangle width="238" height="43" as="alternateBounds"/></mxGeometry></mxCell><mxCell id="jtx8YUKIoFRYlrF7leEJ-136" value="string" style="shape=partialRectangle;html=1;whiteSpace=wrap;connectable=0;fillColor=none;top=0;left=0;bottom=0;right=0;overflow=hidden;rounded=0;sketch=0;fontSize=17;strokeColor=#F0F0F0;fontColor=#FFFFFF;align=center;labelPosition=center;verticalLabelPosition=middle;verticalAlign=middle;labelBackgroundColor=none;" parent="jtx8YUKIoFRYlrF7leEJ-133" vertex="1"><mxGeometry x="338" width="236" height="43" as="geometry"><mxRectangle width="236" height="43" as="alternateBounds"/></mxGeometry></mxCell><mxCell id="jtx8YUKIoFRYlrF7leEJ-137" value="密码的一次sha1值，若无密码，则为&quot;&quot;" style="shape=partialRectangle;html=1;whiteSpace=wrap;connectable=0;fillColor=none;top=0;left=0;bottom=0;right=0;overflow=hidden;rounded=0;sketch=0;fontSize=17;strokeColor=#F0F0F0;fontColor=#FFFFFF;align=center;labelPosition=center;verticalLabelPosition=middle;verticalAlign=middle;labelBackgroundColor=none;" parent="jtx8YUKIoFRYlrF7leEJ-133" vertex="1"><mxGeometry x="574" width="296" height="43" as="geometry"><mxRectangle width="296" height="43" as="alternateBounds"/></mxGeometry></mxCell><mxCell id="jtx8YUKIoFRYlrF7leEJ-138" value="Status" style="shape=table;startSize=50;container=1;collapsible=0;childLayout=tableLayout;fontStyle=1;align=center;rounded=0;labelBackgroundColor=none;sketch=0;strokeColor=#F0F0F0;fontSize=24;fontColor=#FFFFFF;fillColor=#66B2FF;" parent="1" vertex="1"><mxGeometry x="1190" y="1090" width="1034" height="411" as="geometry"/></mxCell><mxCell id="jtx8YUKIoFRYlrF7leEJ-186" style="shape=tableRow;horizontal=0;startSize=0;swimlaneHead=0;swimlaneBody=0;top=0;left=0;bottom=0;right=0;collapsible=0;dropTarget=0;fillColor=none;points=[[0,0.5],[1,0.5]];portConstraint=eastwest;rounded=0;labelBackgroundColor=none;sketch=0;strokeColor=#F0F0F0;fontSize=24;fontColor=#FFFFFF;" parent="jtx8YUKIoFRYlrF7leEJ-138" vertex="1"><mxGeometry y="50" width="1034" height="91" as="geometry"/></mxCell><mxCell id="jtx8YUKIoFRYlrF7leEJ-187" value="取值" style="shape=partialRectangle;html=1;whiteSpace=wrap;connectable=0;fillColor=none;top=0;left=0;bottom=0;right=0;overflow=hidden;rounded=0;labelBackgroundColor=none;sketch=0;strokeColor=#F0F0F0;fontSize=24;fontColor=#FFFFFF;" parent="jtx8YUKIoFRYlrF7leEJ-186" vertex="1"><mxGeometry width="106" height="91" as="geometry"><mxRectangle width="106" height="91" as="alternateBounds"/></mxGeometry></mxCell><mxCell id="jtx8YUKIoFRYlrF7leEJ-188" value="名称" style="shape=partialRectangle;html=1;whiteSpace=wrap;connectable=0;fillColor=none;top=0;left=0;bottom=0;right=0;overflow=hidden;rounded=0;labelBackgroundColor=none;sketch=0;strokeColor=#F0F0F0;fontSize=24;fontColor=#FFFFFF;" parent="jtx8YUKIoFRYlrF7leEJ-186" vertex="1"><mxGeometry x="106" width="464" height="91" as="geometry"><mxRectangle width="464" height="91" as="alternateBounds"/></mxGeometry></mxCell><mxCell id="jtx8YUKIoFRYlrF7leEJ-189" value="含义" style="shape=partialRectangle;html=1;whiteSpace=wrap;connectable=0;fillColor=none;top=0;left=0;bottom=0;right=0;overflow=hidden;rounded=0;labelBackgroundColor=none;sketch=0;strokeColor=#F0F0F0;fontSize=24;fontColor=#FFFFFF;" parent="jtx8YUKIoFRYlrF7leEJ-186" vertex="1"><mxGeometry x="570" width="464" height="91" as="geometry"><mxRectangle width="464" height="91" as="alternateBounds"/></mxGeometry></mxCell><mxCell id="jtx8YUKIoFRYlrF7leEJ-139" value="" style="shape=tableRow;horizontal=0;startSize=0;swimlaneHead=0;swimlaneBody=0;top=0;left=0;bottom=0;right=0;collapsible=0;dropTarget=0;fillColor=none;points=[[0,0.5],[1,0.5]];portConstraint=eastwest;rounded=0;labelBackgroundColor=none;sketch=0;strokeColor=#F0F0F0;fontSize=24;fontColor=#FFFFFF;" parent="jtx8YUKIoFRYlrF7leEJ-138" vertex="1"><mxGeometry y="141" width="1034" height="91" as="geometry"/></mxCell><mxCell id="jtx8YUKIoFRYlrF7leEJ-140" value="&quot;0&quot;" style="shape=partialRectangle;html=1;whiteSpace=wrap;connectable=0;fillColor=none;top=0;left=0;bottom=0;right=0;overflow=hidden;rounded=0;labelBackgroundColor=none;sketch=0;strokeColor=#F0F0F0;fontSize=24;fontColor=#FFFFFF;" parent="jtx8YUKIoFRYlrF7leEJ-139" vertex="1"><mxGeometry width="106" height="91" as="geometry"><mxRectangle width="106" height="91" as="alternateBounds"/></mxGeometry></mxCell><mxCell id="jtx8YUKIoFRYlrF7leEJ-180" value="AcceptedStatus" style="shape=partialRectangle;html=1;whiteSpace=wrap;connectable=0;fillColor=none;top=0;left=0;bottom=0;right=0;overflow=hidden;rounded=0;labelBackgroundColor=none;sketch=0;strokeColor=#F0F0F0;fontSize=24;fontColor=#FFFFFF;" parent="jtx8YUKIoFRYlrF7leEJ-139" vertex="1"><mxGeometry x="106" width="464" height="91" as="geometry"><mxRectangle width="464" height="91" as="alternateBounds"/></mxGeometry></mxCell><mxCell id="jtx8YUKIoFRYlrF7leEJ-141" value="接受并正确处理了请求" style="shape=partialRectangle;html=1;whiteSpace=wrap;connectable=0;fillColor=none;top=0;left=0;bottom=0;right=0;overflow=hidden;rounded=0;labelBackgroundColor=none;sketch=0;strokeColor=#F0F0F0;fontSize=24;fontColor=#FFFFFF;" parent="jtx8YUKIoFRYlrF7leEJ-139" vertex="1"><mxGeometry x="570" width="464" height="91" as="geometry"><mxRectangle width="464" height="91" as="alternateBounds"/></mxGeometry></mxCell><mxCell id="jtx8YUKIoFRYlrF7leEJ-142" value="" style="shape=tableRow;horizontal=0;startSize=0;swimlaneHead=0;swimlaneBody=0;top=0;left=0;bottom=0;right=0;collapsible=0;dropTarget=0;fillColor=none;points=[[0,0.5],[1,0.5]];portConstraint=eastwest;rounded=0;labelBackgroundColor=none;sketch=0;strokeColor=#F0F0F0;fontSize=24;fontColor=#FFFFFF;" parent="jtx8YUKIoFRYlrF7leEJ-138" vertex="1"><mxGeometry y="232" width="1034" height="88" as="geometry"/></mxCell><mxCell id="jtx8YUKIoFRYlrF7leEJ-143" value="&quot;1&quot;" style="shape=partialRectangle;html=1;whiteSpace=wrap;connectable=0;fillColor=none;top=0;left=0;bottom=0;right=0;overflow=hidden;rounded=0;labelBackgroundColor=none;sketch=0;strokeColor=#F0F0F0;fontSize=24;fontColor=#FFFFFF;" parent="jtx8YUKIoFRYlrF7leEJ-142" vertex="1"><mxGeometry width="106" height="88" as="geometry"><mxRectangle width="106" height="88" as="alternateBounds"/></mxGeometry></mxCell><mxCell id="jtx8YUKIoFRYlrF7leEJ-181" value="RefusedStatus" style="shape=partialRectangle;html=1;whiteSpace=wrap;connectable=0;fillColor=none;top=0;left=0;bottom=0;right=0;overflow=hidden;rounded=0;labelBackgroundColor=none;sketch=0;strokeColor=#F0F0F0;fontSize=24;fontColor=#FFFFFF;" parent="jtx8YUKIoFRYlrF7leEJ-142" vertex="1"><mxGeometry x="106" width="464" height="88" as="geometry"><mxRectangle width="464" height="88" as="alternateBounds"/></mxGeometry></mxCell><mxCell id="jtx8YUKIoFRYlrF7leEJ-144" value="拒绝处理请求" style="shape=partialRectangle;html=1;whiteSpace=wrap;connectable=0;fillColor=none;top=0;left=0;bottom=0;right=0;overflow=hidden;rounded=0;labelBackgroundColor=none;sketch=0;strokeColor=#F0F0F0;fontSize=24;fontColor=#FFFFFF;" parent="jtx8YUKIoFRYlrF7leEJ-142" vertex="1"><mxGeometry x="570" width="464" height="88" as="geometry"><mxRectangle width="464" height="88" as="alternateBounds"/></mxGeometry></mxCell><mxCell id="jtx8YUKIoFRYlrF7leEJ-145" value="" style="shape=tableRow;horizontal=0;startSize=0;swimlaneHead=0;swimlaneBody=0;top=0;left=0;bottom=0;right=0;collapsible=0;dropTarget=0;fillColor=none;points=[[0,0.5],[1,0.5]];portConstraint=eastwest;rounded=0;labelBackgroundColor=none;sketch=0;strokeColor=#F0F0F0;fontSize=24;fontColor=#FFFFFF;" parent="jtx8YUKIoFRYlrF7leEJ-138" vertex="1"><mxGeometry y="320" width="1034" height="91" as="geometry"/></mxCell><mxCell id="jtx8YUKIoFRYlrF7leEJ-146" value="&quot;10&quot;" style="shape=partialRectangle;html=1;whiteSpace=wrap;connectable=0;fillColor=none;top=0;left=0;bottom=0;right=0;overflow=hidden;rounded=0;labelBackgroundColor=none;sketch=0;strokeColor=#F0F0F0;fontSize=24;fontColor=#FFFFFF;" parent="jtx8YUKIoFRYlrF7leEJ-145" vertex="1"><mxGeometry width="106" height="91" as="geometry"><mxRectangle width="106" height="91" as="alternateBounds"/></mxGeometry></mxCell><mxCell id="jtx8YUKIoFRYlrF7leEJ-182" value="TokenIncorrectStatus" style="shape=partialRectangle;html=1;whiteSpace=wrap;connectable=0;fillColor=none;top=0;left=0;bottom=0;right=0;overflow=hidden;rounded=0;labelBackgroundColor=none;sketch=0;strokeColor=#F0F0F0;fontSize=24;fontColor=#FFFFFF;" parent="jtx8YUKIoFRYlrF7leEJ-145" vertex="1"><mxGeometry x="106" width="464" height="91" as="geometry"><mxRectangle width="464" height="91" as="alternateBounds"/></mxGeometry></mxCell><mxCell id="jtx8YUKIoFRYlrF7leEJ-147" value="客户端注册的密钥不正确" style="shape=partialRectangle;html=1;whiteSpace=wrap;connectable=0;fillColor=none;top=0;left=0;bottom=0;right=0;overflow=hidden;rounded=0;labelBackgroundColor=none;sketch=0;strokeColor=#F0F0F0;fontSize=24;fontColor=#FFFFFF;" parent="jtx8YUKIoFRYlrF7leEJ-145" vertex="1"><mxGeometry x="570" width="464" height="91" as="geometry"><mxRectangle width="464" height="91" as="alternateBounds"/></mxGeometry></mxCell><mxCell id="jtx8YUKIoFRYlrF7leEJ-148" value="通用的返回值，对于不同消息类型，其字段有所缺省，适用于RegisterMessageRespType, MessageRespType" style="text;html=1;strokeColor=none;fillColor=none;align=left;verticalAlign=middle;whiteSpace=wrap;rounded=0;labelBackgroundColor=none;sketch=0;fontSize=24;fontColor=#FFFFFF;" parent="1" vertex="1"><mxGeometry x="130" y="1000" width="660" height="90" as="geometry"/></mxCell><mxCell id="jtx8YUKIoFRYlrF7leEJ-151" value="ReRegisterMessageType (json)" style="shape=table;startSize=60;container=1;collapsible=0;childLayout=tableLayout;fontStyle=1;align=center;rounded=0;sketch=0;fontSize=24;fillColor=#66B2FF;" parent="1" vertex="1"><mxGeometry x="120" y="1654" width="870" height="121" as="geometry"/></mxCell><mxCell id="jtx8YUKIoFRYlrF7leEJ-152" style="shape=tableRow;horizontal=0;startSize=0;swimlaneHead=0;swimlaneBody=0;top=0;left=0;bottom=0;right=0;collapsible=0;dropTarget=0;fillColor=none;points=[[0,0.5],[1,0.5]];portConstraint=eastwest;rounded=0;sketch=0;fontSize=17;" parent="jtx8YUKIoFRYlrF7leEJ-151" vertex="1"><mxGeometry y="60" width="870" height="61" as="geometry"/></mxCell><mxCell id="jtx8YUKIoFRYlrF7leEJ-153" value="字段顺序" style="shape=partialRectangle;html=1;whiteSpace=wrap;connectable=0;fillColor=none;top=0;left=0;bottom=0;right=0;overflow=hidden;rounded=0;sketch=0;fontSize=17;" parent="jtx8YUKIoFRYlrF7leEJ-152" vertex="1"><mxGeometry width="100" height="61" as="geometry"><mxRectangle width="100" height="61" as="alternateBounds"/></mxGeometry></mxCell><mxCell id="jtx8YUKIoFRYlrF7leEJ-154" value="字段名称" style="shape=partialRectangle;html=1;whiteSpace=wrap;connectable=0;fillColor=none;top=0;left=0;bottom=0;right=0;overflow=hidden;rounded=0;sketch=0;fontSize=17;strokeColor=#F0F0F0;fontColor=#FFFFFF;align=center;labelPosition=center;verticalLabelPosition=middle;verticalAlign=middle;labelBackgroundColor=none;" parent="jtx8YUKIoFRYlrF7leEJ-152" vertex="1"><mxGeometry x="100" width="238" height="61" as="geometry"><mxRectangle width="238" height="61" as="alternateBounds"/></mxGeometry></mxCell><mxCell id="jtx8YUKIoFRYlrF7leEJ-155" value="类型" style="shape=partialRectangle;html=1;whiteSpace=wrap;connectable=0;fillColor=none;top=0;left=0;bottom=0;right=0;overflow=hidden;rounded=0;sketch=0;fontSize=17;strokeColor=#F0F0F0;fontColor=#FFFFFF;align=center;labelPosition=center;verticalLabelPosition=middle;verticalAlign=middle;labelBackgroundColor=none;" parent="jtx8YUKIoFRYlrF7leEJ-152" vertex="1"><mxGeometry x="338" width="236" height="61" as="geometry"><mxRectangle width="236" height="61" as="alternateBounds"/></mxGeometry></mxCell><mxCell id="jtx8YUKIoFRYlrF7leEJ-156" value="含义" style="shape=partialRectangle;html=1;whiteSpace=wrap;connectable=0;fillColor=none;top=0;left=0;bottom=0;right=0;overflow=hidden;rounded=0;sketch=0;fontSize=17;strokeColor=#F0F0F0;fontColor=#FFFFFF;align=center;labelPosition=center;verticalLabelPosition=middle;verticalAlign=middle;labelBackgroundColor=none;" parent="jtx8YUKIoFRYlrF7leEJ-152" vertex="1"><mxGeometry x="574" width="296" height="61" as="geometry"><mxRectangle width="296" height="61" as="alternateBounds"/></mxGeometry></mxCell><mxCell id="jtx8YUKIoFRYlrF7leEJ-198" value="PMessageType (binary)" style="shape=table;startSize=60;container=1;collapsible=0;childLayout=tableLayout;fontStyle=1;align=center;rounded=0;sketch=0;fontSize=24;fillColor=#66B2FF;" parent="1" vertex="1"><mxGeometry x="120" y="2050" width="870" height="514" as="geometry"/></mxCell><mxCell id="jtx8YUKIoFRYlrF7leEJ-199" style="shape=tableRow;horizontal=0;startSize=0;swimlaneHead=0;swimlaneBody=0;top=0;left=0;bottom=0;right=0;collapsible=0;dropTarget=0;fillColor=none;points=[[0,0.5],[1,0.5]];portConstraint=eastwest;rounded=0;sketch=0;fontSize=17;" parent="jtx8YUKIoFRYlrF7leEJ-198" vertex="1"><mxGeometry y="60" width="870" height="61" as="geometry"/></mxCell><mxCell id="jtx8YUKIoFRYlrF7leEJ-200" value="字段顺序" style="shape=partialRectangle;html=1;whiteSpace=wrap;connectable=0;fillColor=none;top=0;left=0;bottom=0;right=0;overflow=hidden;rounded=0;sketch=0;fontSize=17;" parent="jtx8YUKIoFRYlrF7leEJ-199" vertex="1"><mxGeometry width="100" height="61" as="geometry"><mxRectangle width="100" height="61" as="alternateBounds"/></mxGeometry></mxCell><mxCell id="jtx8YUKIoFRYlrF7leEJ-201" value="字段名称" style="shape=partialRectangle;html=1;whiteSpace=wrap;connectable=0;fillColor=none;top=0;left=0;bottom=0;right=0;overflow=hidden;rounded=0;sketch=0;fontSize=17;strokeColor=#F0F0F0;fontColor=#FFFFFF;align=center;labelPosition=center;verticalLabelPosition=middle;verticalAlign=middle;labelBackgroundColor=none;" parent="jtx8YUKIoFRYlrF7leEJ-199" vertex="1"><mxGeometry x="100" width="238" height="61" as="geometry"><mxRectangle width="238" height="61" as="alternateBounds"/></mxGeometry></mxCell><mxCell id="jtx8YUKIoFRYlrF7leEJ-202" value="类型" style="shape=partialRectangle;html=1;whiteSpace=wrap;connectable=0;fillColor=none;top=0;left=0;bottom=0;right=0;overflow=hidden;rounded=0;sketch=0;fontSize=17;strokeColor=#F0F0F0;fontColor=#FFFFFF;align=center;labelPosition=center;verticalLabelPosition=middle;verticalAlign=middle;labelBackgroundColor=none;" parent="jtx8YUKIoFRYlrF7leEJ-199" vertex="1"><mxGeometry x="338" width="236" height="61" as="geometry"><mxRectangle width="236" height="61" as="alternateBounds"/></mxGeometry></mxCell><mxCell id="jtx8YUKIoFRYlrF7leEJ-203" value="含义" style="shape=partialRectangle;html=1;whiteSpace=wrap;connectable=0;fillColor=none;top=0;left=0;bottom=0;right=0;overflow=hidden;rounded=0;sketch=0;fontSize=17;strokeColor=#F0F0F0;fontColor=#FFFFFF;align=center;labelPosition=center;verticalLabelPosition=middle;verticalAlign=middle;labelBackgroundColor=none;" parent="jtx8YUKIoFRYlrF7leEJ-199" vertex="1"><mxGeometry x="574" width="296" height="61" as="geometry"><mxRectangle width="296" height="61" as="alternateBounds"/></mxGeometry></mxCell><mxCell id="jtx8YUKIoFRYlrF7leEJ-204" value="" style="shape=tableRow;horizontal=0;startSize=0;swimlaneHead=0;swimlaneBody=0;top=0;left=0;bottom=0;right=0;collapsible=0;dropTarget=0;fillColor=none;points=[[0,0.5],[1,0.5]];portConstraint=eastwest;rounded=0;sketch=0;fontSize=17;" parent="jtx8YUKIoFRYlrF7leEJ-198" vertex="1"><mxGeometry y="121" width="870" height="60" as="geometry"/></mxCell><mxCell id="jtx8YUKIoFRYlrF7leEJ-205" value="0" style="shape=partialRectangle;html=1;whiteSpace=wrap;connectable=0;fillColor=none;top=0;left=0;bottom=0;right=0;overflow=hidden;rounded=0;sketch=0;fontSize=17;" parent="jtx8YUKIoFRYlrF7leEJ-204" vertex="1"><mxGeometry width="100" height="60" as="geometry"><mxRectangle width="100" height="60" as="alternateBounds"/></mxGeometry></mxCell><mxCell id="jtx8YUKIoFRYlrF7leEJ-206" value="&lt;div style=&quot;font-size: 17px;&quot;&gt;&lt;pre style=&quot;font-family: &amp;quot;JetBrains Mono&amp;quot;, monospace; font-size: 17px;&quot;&gt;&lt;span style=&quot;font-style: italic; font-size: 17px;&quot;&gt;&lt;font style=&quot;font-size: 17px;&quot;&gt;topic_len&lt;/font&gt;&lt;/span&gt;&lt;/pre&gt;&lt;/div&gt;" style="shape=partialRectangle;html=1;whiteSpace=wrap;connectable=0;fillColor=none;top=0;left=0;bottom=0;right=0;overflow=hidden;rounded=0;sketch=0;fontSize=17;strokeColor=#F0F0F0;fontColor=#FFFFFF;align=center;labelPosition=center;verticalLabelPosition=middle;verticalAlign=middle;labelBackgroundColor=none;" parent="jtx8YUKIoFRYlrF7leEJ-204" vertex="1"><mxGeometry x="100" width="238" height="60" as="geometry"><mxRectangle width="238" height="60" as="alternateBounds"/></mxGeometry></mxCell><mxCell id="jtx8YUKIoFRYlrF7leEJ-207" value="byte" style="shape=partialRectangle;html=1;whiteSpace=wrap;connectable=0;fillColor=none;top=0;left=0;bottom=0;right=0;overflow=hidden;rounded=0;sketch=0;fontSize=17;strokeColor=#F0F0F0;fontColor=#FFFFFF;align=center;labelPosition=center;verticalLabelPosition=middle;verticalAlign=middle;labelBackgroundColor=none;" parent="jtx8YUKIoFRYlrF7leEJ-204" vertex="1"><mxGeometry x="338" width="236" height="60" as="geometry"><mxRectangle width="236" height="60" as="alternateBounds"/></mxGeometry></mxCell><mxCell id="jtx8YUKIoFRYlrF7leEJ-208" value="topic 字节长度" style="shape=partialRectangle;html=1;whiteSpace=wrap;connectable=0;fillColor=none;top=0;left=0;bottom=0;right=0;overflow=hidden;rounded=0;sketch=0;fontSize=17;strokeColor=#F0F0F0;fontColor=#FFFFFF;align=center;labelPosition=center;verticalLabelPosition=middle;verticalAlign=middle;labelBackgroundColor=none;" parent="jtx8YUKIoFRYlrF7leEJ-204" vertex="1"><mxGeometry x="574" width="296" height="60" as="geometry"><mxRectangle width="296" height="60" as="alternateBounds"/></mxGeometry></mxCell><mxCell id="jtx8YUKIoFRYlrF7leEJ-209" value="" style="shape=tableRow;horizontal=0;startSize=0;swimlaneHead=0;swimlaneBody=0;top=0;left=0;bottom=0;right=0;collapsible=0;dropTarget=0;fillColor=none;points=[[0,0.5],[1,0.5]];portConstraint=eastwest;rounded=0;sketch=0;fontSize=17;" parent="jtx8YUKIoFRYlrF7leEJ-198" vertex="1"><mxGeometry y="181" width="870" height="65" as="geometry"/></mxCell><mxCell id="jtx8YUKIoFRYlrF7leEJ-210" value="1" style="shape=partialRectangle;html=1;whiteSpace=wrap;connectable=0;fillColor=none;top=0;left=0;bottom=0;right=0;overflow=hidden;rounded=0;sketch=0;fontSize=17;" parent="jtx8YUKIoFRYlrF7leEJ-209" vertex="1"><mxGeometry width="100" height="65" as="geometry"><mxRectangle width="100" height="65" as="alternateBounds"/></mxGeometry></mxCell><mxCell id="jtx8YUKIoFRYlrF7leEJ-211" value="&lt;div style=&quot;font-size: 17px;&quot;&gt;&lt;pre style=&quot;font-family: &amp;quot;JetBrains Mono&amp;quot;, monospace; font-size: 17px;&quot;&gt;&lt;i&gt;topic&lt;/i&gt;&lt;/pre&gt;&lt;/div&gt;" style="shape=partialRectangle;html=1;whiteSpace=wrap;connectable=0;fillColor=none;top=0;left=0;bottom=0;right=0;overflow=hidden;rounded=0;sketch=0;fontSize=17;strokeColor=#F0F0F0;fontColor=#FFFFFF;align=center;labelPosition=center;verticalLabelPosition=middle;verticalAlign=middle;labelBackgroundColor=none;" parent="jtx8YUKIoFRYlrF7leEJ-209" vertex="1"><mxGeometry x="100" width="238" height="65" as="geometry"><mxRectangle width="238" height="65" as="alternateBounds"/></mxGeometry></mxCell><mxCell id="jtx8YUKIoFRYlrF7leEJ-212" value="list[byte]" style="shape=partialRectangle;html=1;whiteSpace=wrap;connectable=0;fillColor=none;top=0;left=0;bottom=0;right=0;overflow=hidden;rounded=0;sketch=0;fontSize=17;strokeColor=#F0F0F0;fontColor=#FFFFFF;align=center;labelPosition=center;verticalLabelPosition=middle;verticalAlign=middle;labelBackgroundColor=none;" parent="jtx8YUKIoFRYlrF7leEJ-209" vertex="1"><mxGeometry x="338" width="236" height="65" as="geometry"><mxRectangle width="236" height="65" as="alternateBounds"/></mxGeometry></mxCell><mxCell id="jtx8YUKIoFRYlrF7leEJ-213" value="topic 字符串转字节" style="shape=partialRectangle;html=1;whiteSpace=wrap;connectable=0;fillColor=none;top=0;left=0;bottom=0;right=0;overflow=hidden;rounded=0;sketch=0;fontSize=17;strokeColor=#F0F0F0;fontColor=#FFFFFF;align=center;labelPosition=center;verticalLabelPosition=middle;verticalAlign=middle;labelBackgroundColor=none;" parent="jtx8YUKIoFRYlrF7leEJ-209" vertex="1"><mxGeometry x="574" width="296" height="65" as="geometry"><mxRectangle width="296" height="65" as="alternateBounds"/></mxGeometry></mxCell><mxCell id="jtx8YUKIoFRYlrF7leEJ-214" value="" style="shape=tableRow;horizontal=0;startSize=0;swimlaneHead=0;swimlaneBody=0;top=0;left=0;bottom=0;right=0;collapsible=0;dropTarget=0;fillColor=none;points=[[0,0.5],[1,0.5]];portConstraint=eastwest;rounded=0;sketch=0;fontSize=17;" parent="jtx8YUKIoFRYlrF7leEJ-198" vertex="1"><mxGeometry y="246" width="870" height="67" as="geometry"/></mxCell><mxCell id="jtx8YUKIoFRYlrF7leEJ-215" value="2" style="shape=partialRectangle;html=1;whiteSpace=wrap;connectable=0;fillColor=none;top=0;left=0;bottom=0;right=0;overflow=hidden;rounded=0;sketch=0;fontSize=17;" parent="jtx8YUKIoFRYlrF7leEJ-214" vertex="1"><mxGeometry width="100" height="67" as="geometry"><mxRectangle width="100" height="67" as="alternateBounds"/></mxGeometry></mxCell><mxCell id="jtx8YUKIoFRYlrF7leEJ-216" value="&lt;div style=&quot;font-size: 17px;&quot;&gt;&lt;pre style=&quot;font-family: &amp;quot;JetBrains Mono&amp;quot;, monospace; font-size: 17px;&quot;&gt;key_len&lt;/pre&gt;&lt;/div&gt;" style="shape=partialRectangle;html=1;whiteSpace=wrap;connectable=0;fillColor=none;top=0;left=0;bottom=0;right=0;overflow=hidden;rounded=0;sketch=0;fontSize=17;strokeColor=#F0F0F0;fontColor=#FFFFFF;align=center;labelPosition=center;verticalLabelPosition=middle;verticalAlign=middle;labelBackgroundColor=none;" parent="jtx8YUKIoFRYlrF7leEJ-214" vertex="1"><mxGeometry x="100" width="238" height="67" as="geometry"><mxRectangle width="238" height="67" as="alternateBounds"/></mxGeometry></mxCell><mxCell id="jtx8YUKIoFRYlrF7leEJ-217" value="byte" style="shape=partialRectangle;html=1;whiteSpace=wrap;connectable=0;fillColor=none;top=0;left=0;bottom=0;right=0;overflow=hidden;rounded=0;sketch=0;fontSize=17;strokeColor=#F0F0F0;fontColor=#FFFFFF;align=center;labelPosition=center;verticalLabelPosition=middle;verticalAlign=middle;labelBackgroundColor=none;" parent="jtx8YUKIoFRYlrF7leEJ-214" vertex="1"><mxGeometry x="338" width="236" height="67" as="geometry"><mxRectangle width="236" height="67" as="alternateBounds"/></mxGeometry></mxCell><mxCell id="jtx8YUKIoFRYlrF7leEJ-218" value="key 字节长度" style="shape=partialRectangle;html=1;whiteSpace=wrap;connectable=0;fillColor=none;top=0;left=0;bottom=0;right=0;overflow=hidden;rounded=0;sketch=0;fontSize=17;strokeColor=#F0F0F0;fontColor=#FFFFFF;align=center;labelPosition=center;verticalLabelPosition=middle;verticalAlign=middle;labelBackgroundColor=none;" parent="jtx8YUKIoFRYlrF7leEJ-214" vertex="1"><mxGeometry x="574" width="296" height="67" as="geometry"><mxRectangle width="296" height="67" as="alternateBounds"/></mxGeometry></mxCell><mxCell id="jtx8YUKIoFRYlrF7leEJ-219" value="" style="shape=tableRow;horizontal=0;startSize=0;swimlaneHead=0;swimlaneBody=0;top=0;left=0;bottom=0;right=0;collapsible=0;dropTarget=0;fillColor=none;points=[[0,0.5],[1,0.5]];portConstraint=eastwest;rounded=0;sketch=0;fontSize=17;" parent="jtx8YUKIoFRYlrF7leEJ-198" vertex="1"><mxGeometry y="313" width="870" height="67" as="geometry"/></mxCell><mxCell id="jtx8YUKIoFRYlrF7leEJ-220" value="3" style="shape=partialRectangle;html=1;whiteSpace=wrap;connectable=0;fillColor=none;top=0;left=0;bottom=0;right=0;overflow=hidden;rounded=0;sketch=0;fontSize=17;" parent="jtx8YUKIoFRYlrF7leEJ-219" vertex="1"><mxGeometry width="100" height="67" as="geometry"><mxRectangle width="100" height="67" as="alternateBounds"/></mxGeometry></mxCell><mxCell id="jtx8YUKIoFRYlrF7leEJ-221" value="&lt;div style=&quot;font-size: 17px;&quot;&gt;&lt;pre style=&quot;font-family: &amp;quot;JetBrains Mono&amp;quot;, monospace; font-size: 17px;&quot;&gt;&lt;span style=&quot;font-style: italic; font-size: 17px;&quot;&gt;key&lt;/span&gt;&lt;/pre&gt;&lt;/div&gt;" style="shape=partialRectangle;html=1;whiteSpace=wrap;connectable=0;fillColor=none;top=0;left=0;bottom=0;right=0;overflow=hidden;rounded=0;sketch=0;fontSize=17;strokeColor=#F0F0F0;fontColor=#FFFFFF;align=center;labelPosition=center;verticalLabelPosition=middle;verticalAlign=middle;labelBackgroundColor=none;" parent="jtx8YUKIoFRYlrF7leEJ-219" vertex="1"><mxGeometry x="100" width="238" height="67" as="geometry"><mxRectangle width="238" height="67" as="alternateBounds"/></mxGeometry></mxCell><mxCell id="jtx8YUKIoFRYlrF7leEJ-222" value="list[byte]" style="shape=partialRectangle;html=1;whiteSpace=wrap;connectable=0;fillColor=none;top=0;left=0;bottom=0;right=0;overflow=hidden;rounded=0;sketch=0;fontSize=17;strokeColor=#F0F0F0;fontColor=#FFFFFF;align=center;labelPosition=center;verticalLabelPosition=middle;verticalAlign=middle;labelBackgroundColor=none;" parent="jtx8YUKIoFRYlrF7leEJ-219" vertex="1"><mxGeometry x="338" width="236" height="67" as="geometry"><mxRectangle width="236" height="67" as="alternateBounds"/></mxGeometry></mxCell><mxCell id="jtx8YUKIoFRYlrF7leEJ-223" value="key" style="shape=partialRectangle;html=1;whiteSpace=wrap;connectable=0;fillColor=none;top=0;left=0;bottom=0;right=0;overflow=hidden;rounded=0;sketch=0;fontSize=17;strokeColor=#F0F0F0;fontColor=#FFFFFF;align=center;labelPosition=center;verticalLabelPosition=middle;verticalAlign=middle;labelBackgroundColor=none;" parent="jtx8YUKIoFRYlrF7leEJ-219" vertex="1"><mxGeometry x="574" width="296" height="67" as="geometry"><mxRectangle width="296" height="67" as="alternateBounds"/></mxGeometry></mxCell><mxCell id="jtx8YUKIoFRYlrF7leEJ-225" style="shape=tableRow;horizontal=0;startSize=0;swimlaneHead=0;swimlaneBody=0;top=0;left=0;bottom=0;right=0;collapsible=0;dropTarget=0;fillColor=none;points=[[0,0.5],[1,0.5]];portConstraint=eastwest;rounded=0;sketch=0;fontSize=17;" parent="jtx8YUKIoFRYlrF7leEJ-198" vertex="1"><mxGeometry y="380" width="870" height="67" as="geometry"/></mxCell><mxCell id="jtx8YUKIoFRYlrF7leEJ-226" value="4" style="shape=partialRectangle;html=1;whiteSpace=wrap;connectable=0;fillColor=none;top=0;left=0;bottom=0;right=0;overflow=hidden;rounded=0;sketch=0;fontSize=17;" parent="jtx8YUKIoFRYlrF7leEJ-225" vertex="1"><mxGeometry width="100" height="67" as="geometry"><mxRectangle width="100" height="67" as="alternateBounds"/></mxGeometry></mxCell><mxCell id="jtx8YUKIoFRYlrF7leEJ-227" value="value_len" style="shape=partialRectangle;html=1;whiteSpace=wrap;connectable=0;fillColor=none;top=0;left=0;bottom=0;right=0;overflow=hidden;rounded=0;sketch=0;fontSize=17;strokeColor=#F0F0F0;fontColor=#FFFFFF;align=center;labelPosition=center;verticalLabelPosition=middle;verticalAlign=middle;labelBackgroundColor=none;" parent="jtx8YUKIoFRYlrF7leEJ-225" vertex="1"><mxGeometry x="100" width="238" height="67" as="geometry"><mxRectangle width="238" height="67" as="alternateBounds"/></mxGeometry></mxCell><mxCell id="jtx8YUKIoFRYlrF7leEJ-228" value="uint16" style="shape=partialRectangle;html=1;whiteSpace=wrap;connectable=0;fillColor=none;top=0;left=0;bottom=0;right=0;overflow=hidden;rounded=0;sketch=0;fontSize=17;strokeColor=#F0F0F0;fontColor=#FFFFFF;align=center;labelPosition=center;verticalLabelPosition=middle;verticalAlign=middle;labelBackgroundColor=none;" parent="jtx8YUKIoFRYlrF7leEJ-225" vertex="1"><mxGeometry x="338" width="236" height="67" as="geometry"><mxRectangle width="236" height="67" as="alternateBounds"/></mxGeometry></mxCell><mxCell id="jtx8YUKIoFRYlrF7leEJ-229" value="value 字节长度" style="shape=partialRectangle;html=1;whiteSpace=wrap;connectable=0;fillColor=none;top=0;left=0;bottom=0;right=0;overflow=hidden;rounded=0;sketch=0;fontSize=17;strokeColor=#F0F0F0;fontColor=#FFFFFF;align=center;labelPosition=center;verticalLabelPosition=middle;verticalAlign=middle;labelBackgroundColor=none;" parent="jtx8YUKIoFRYlrF7leEJ-225" vertex="1"><mxGeometry x="574" width="296" height="67" as="geometry"><mxRectangle width="296" height="67" as="alternateBounds"/></mxGeometry></mxCell><mxCell id="jtx8YUKIoFRYlrF7leEJ-230" style="shape=tableRow;horizontal=0;startSize=0;swimlaneHead=0;swimlaneBody=0;top=0;left=0;bottom=0;right=0;collapsible=0;dropTarget=0;fillColor=none;points=[[0,0.5],[1,0.5]];portConstraint=eastwest;rounded=0;sketch=0;fontSize=17;" parent="jtx8YUKIoFRYlrF7leEJ-198" vertex="1"><mxGeometry y="447" width="870" height="67" as="geometry"/></mxCell><mxCell id="jtx8YUKIoFRYlrF7leEJ-231" value="5" style="shape=partialRectangle;html=1;whiteSpace=wrap;connectable=0;fillColor=none;top=0;left=0;bottom=0;right=0;overflow=hidden;rounded=0;sketch=0;fontSize=17;" parent="jtx8YUKIoFRYlrF7leEJ-230" vertex="1"><mxGeometry width="100" height="67" as="geometry"><mxRectangle width="100" height="67" as="alternateBounds"/></mxGeometry></mxCell><mxCell id="jtx8YUKIoFRYlrF7leEJ-232" value="value" style="shape=partialRectangle;html=1;whiteSpace=wrap;connectable=0;fillColor=none;top=0;left=0;bottom=0;right=0;overflow=hidden;rounded=0;sketch=0;fontSize=17;strokeColor=#F0F0F0;fontColor=#FFFFFF;align=center;labelPosition=center;verticalLabelPosition=middle;verticalAlign=middle;labelBackgroundColor=none;" parent="jtx8YUKIoFRYlrF7leEJ-230" vertex="1"><mxGeometry x="100" width="238" height="67" as="geometry"><mxRectangle width="238" height="67" as="alternateBounds"/></mxGeometry></mxCell><mxCell id="jtx8YUKIoFRYlrF7leEJ-233" value="&lt;span style=&quot;color: rgb(255, 255, 255); font-family: Helvetica; font-size: 17px; font-style: normal; font-variant-ligatures: normal; font-variant-caps: normal; font-weight: 400; letter-spacing: normal; orphans: 2; text-align: center; text-indent: 0px; text-transform: none; widows: 2; word-spacing: 0px; -webkit-text-stroke-width: 0px; background-color: rgb(42, 42, 42); text-decoration-thickness: initial; text-decoration-style: initial; text-decoration-color: initial; float: none; display: inline !important;&quot;&gt;list[byte]&lt;/span&gt;" style="shape=partialRectangle;html=1;whiteSpace=wrap;connectable=0;fillColor=none;top=0;left=0;bottom=0;right=0;overflow=hidden;rounded=0;sketch=0;fontSize=17;strokeColor=#F0F0F0;fontColor=#FFFFFF;align=center;labelPosition=center;verticalLabelPosition=middle;verticalAlign=middle;labelBackgroundColor=none;" parent="jtx8YUKIoFRYlrF7leEJ-230" vertex="1"><mxGeometry x="338" width="236" height="67" as="geometry"><mxRectangle width="236" height="67" as="alternateBounds"/></mxGeometry></mxCell><mxCell id="jtx8YUKIoFRYlrF7leEJ-234" value="value" style="shape=partialRectangle;html=1;whiteSpace=wrap;connectable=0;fillColor=none;top=0;left=0;bottom=0;right=0;overflow=hidden;rounded=0;sketch=0;fontSize=17;strokeColor=#F0F0F0;fontColor=#FFFFFF;align=center;labelPosition=center;verticalLabelPosition=middle;verticalAlign=middle;labelBackgroundColor=none;" parent="jtx8YUKIoFRYlrF7leEJ-230" vertex="1"><mxGeometry x="574" width="296" height="67" as="geometry"><mxRectangle width="296" height="67" as="alternateBounds"/></mxGeometry></mxCell><mxCell id="jtx8YUKIoFRYlrF7leEJ-235" value="CMessageType (binary)" style="shape=table;startSize=60;container=1;collapsible=0;childLayout=tableLayout;fontStyle=1;align=center;rounded=0;sketch=0;fontSize=24;fillColor=#66B2FF;" parent="1" vertex="1"><mxGeometry x="120" y="2810" width="900" height="648" as="geometry"/></mxCell><mxCell id="jtx8YUKIoFRYlrF7leEJ-236" style="shape=tableRow;horizontal=0;startSize=0;swimlaneHead=0;swimlaneBody=0;top=0;left=0;bottom=0;right=0;collapsible=0;dropTarget=0;fillColor=none;points=[[0,0.5],[1,0.5]];portConstraint=eastwest;rounded=0;sketch=0;fontSize=17;" parent="jtx8YUKIoFRYlrF7leEJ-235" vertex="1"><mxGeometry y="60" width="900" height="61" as="geometry"/></mxCell><mxCell id="jtx8YUKIoFRYlrF7leEJ-237" value="字段顺序" style="shape=partialRectangle;html=1;whiteSpace=wrap;connectable=0;fillColor=none;top=0;left=0;bottom=0;right=0;overflow=hidden;rounded=0;sketch=0;fontSize=17;" parent="jtx8YUKIoFRYlrF7leEJ-236" vertex="1"><mxGeometry width="100" height="61" as="geometry"><mxRectangle width="100" height="61" as="alternateBounds"/></mxGeometry></mxCell><mxCell id="jtx8YUKIoFRYlrF7leEJ-238" value="字段名称" style="shape=partialRectangle;html=1;whiteSpace=wrap;connectable=0;fillColor=none;top=0;left=0;bottom=0;right=0;overflow=hidden;rounded=0;sketch=0;fontSize=17;strokeColor=#F0F0F0;fontColor=#FFFFFF;align=center;labelPosition=center;verticalLabelPosition=middle;verticalAlign=middle;labelBackgroundColor=none;" parent="jtx8YUKIoFRYlrF7leEJ-236" vertex="1"><mxGeometry x="100" width="238" height="61" as="geometry"><mxRectangle width="238" height="61" as="alternateBounds"/></mxGeometry></mxCell><mxCell id="jtx8YUKIoFRYlrF7leEJ-239" value="类型" style="shape=partialRectangle;html=1;whiteSpace=wrap;connectable=0;fillColor=none;top=0;left=0;bottom=0;right=0;overflow=hidden;rounded=0;sketch=0;fontSize=17;strokeColor=#F0F0F0;fontColor=#FFFFFF;align=center;labelPosition=center;verticalLabelPosition=middle;verticalAlign=middle;labelBackgroundColor=none;" parent="jtx8YUKIoFRYlrF7leEJ-236" vertex="1"><mxGeometry x="338" width="236" height="61" as="geometry"><mxRectangle width="236" height="61" as="alternateBounds"/></mxGeometry></mxCell><mxCell id="jtx8YUKIoFRYlrF7leEJ-240" value="含义" style="shape=partialRectangle;html=1;whiteSpace=wrap;connectable=0;fillColor=none;top=0;left=0;bottom=0;right=0;overflow=hidden;rounded=0;sketch=0;fontSize=17;strokeColor=#F0F0F0;fontColor=#FFFFFF;align=center;labelPosition=center;verticalLabelPosition=middle;verticalAlign=middle;labelBackgroundColor=none;" parent="jtx8YUKIoFRYlrF7leEJ-236" vertex="1"><mxGeometry x="574" width="326" height="61" as="geometry"><mxRectangle width="326" height="61" as="alternateBounds"/></mxGeometry></mxCell><mxCell id="jtx8YUKIoFRYlrF7leEJ-241" value="" style="shape=tableRow;horizontal=0;startSize=0;swimlaneHead=0;swimlaneBody=0;top=0;left=0;bottom=0;right=0;collapsible=0;dropTarget=0;fillColor=none;points=[[0,0.5],[1,0.5]];portConstraint=eastwest;rounded=0;sketch=0;fontSize=17;" parent="jtx8YUKIoFRYlrF7leEJ-235" vertex="1"><mxGeometry y="121" width="900" height="60" as="geometry"/></mxCell><mxCell id="jtx8YUKIoFRYlrF7leEJ-242" value="0" style="shape=partialRectangle;html=1;whiteSpace=wrap;connectable=0;fillColor=none;top=0;left=0;bottom=0;right=0;overflow=hidden;rounded=0;sketch=0;fontSize=17;" parent="jtx8YUKIoFRYlrF7leEJ-241" vertex="1"><mxGeometry width="100" height="60" as="geometry"><mxRectangle width="100" height="60" as="alternateBounds"/></mxGeometry></mxCell><mxCell id="jtx8YUKIoFRYlrF7leEJ-243" value="&lt;div style=&quot;font-size: 17px;&quot;&gt;&lt;pre style=&quot;font-family: &amp;quot;JetBrains Mono&amp;quot;, monospace; font-size: 17px;&quot;&gt;&lt;span style=&quot;font-style: italic; font-size: 17px;&quot;&gt;&lt;font style=&quot;font-size: 17px;&quot;&gt;topic_len&lt;/font&gt;&lt;/span&gt;&lt;/pre&gt;&lt;/div&gt;" style="shape=partialRectangle;html=1;whiteSpace=wrap;connectable=0;fillColor=none;top=0;left=0;bottom=0;right=0;overflow=hidden;rounded=0;sketch=0;fontSize=17;strokeColor=#F0F0F0;fontColor=#FFFFFF;align=center;labelPosition=center;verticalLabelPosition=middle;verticalAlign=middle;labelBackgroundColor=none;" parent="jtx8YUKIoFRYlrF7leEJ-241" vertex="1"><mxGeometry x="100" width="238" height="60" as="geometry"><mxRectangle width="238" height="60" as="alternateBounds"/></mxGeometry></mxCell><mxCell id="jtx8YUKIoFRYlrF7leEJ-244" value="byte" style="shape=partialRectangle;html=1;whiteSpace=wrap;connectable=0;fillColor=none;top=0;left=0;bottom=0;right=0;overflow=hidden;rounded=0;sketch=0;fontSize=17;strokeColor=#F0F0F0;fontColor=#FFFFFF;align=center;labelPosition=center;verticalLabelPosition=middle;verticalAlign=middle;labelBackgroundColor=none;" parent="jtx8YUKIoFRYlrF7leEJ-241" vertex="1"><mxGeometry x="338" width="236" height="60" as="geometry"><mxRectangle width="236" height="60" as="alternateBounds"/></mxGeometry></mxCell><mxCell id="jtx8YUKIoFRYlrF7leEJ-245" value="topic 字节长度" style="shape=partialRectangle;html=1;whiteSpace=wrap;connectable=0;fillColor=none;top=0;left=0;bottom=0;right=0;overflow=hidden;rounded=0;sketch=0;fontSize=17;strokeColor=#F0F0F0;fontColor=#FFFFFF;align=center;labelPosition=center;verticalLabelPosition=middle;verticalAlign=middle;labelBackgroundColor=none;" parent="jtx8YUKIoFRYlrF7leEJ-241" vertex="1"><mxGeometry x="574" width="326" height="60" as="geometry"><mxRectangle width="326" height="60" as="alternateBounds"/></mxGeometry></mxCell><mxCell id="jtx8YUKIoFRYlrF7leEJ-246" value="" style="shape=tableRow;horizontal=0;startSize=0;swimlaneHead=0;swimlaneBody=0;top=0;left=0;bottom=0;right=0;collapsible=0;dropTarget=0;fillColor=none;points=[[0,0.5],[1,0.5]];portConstraint=eastwest;rounded=0;sketch=0;fontSize=17;" parent="jtx8YUKIoFRYlrF7leEJ-235" vertex="1"><mxGeometry y="181" width="900" height="65" as="geometry"/></mxCell><mxCell id="jtx8YUKIoFRYlrF7leEJ-247" value="1" style="shape=partialRectangle;html=1;whiteSpace=wrap;connectable=0;fillColor=none;top=0;left=0;bottom=0;right=0;overflow=hidden;rounded=0;sketch=0;fontSize=17;" parent="jtx8YUKIoFRYlrF7leEJ-246" vertex="1"><mxGeometry width="100" height="65" as="geometry"><mxRectangle width="100" height="65" as="alternateBounds"/></mxGeometry></mxCell><mxCell id="jtx8YUKIoFRYlrF7leEJ-248" value="&lt;div style=&quot;font-size: 17px;&quot;&gt;&lt;pre style=&quot;font-family: &amp;quot;JetBrains Mono&amp;quot;, monospace; font-size: 17px;&quot;&gt;&lt;i&gt;topic&lt;/i&gt;&lt;/pre&gt;&lt;/div&gt;" style="shape=partialRectangle;html=1;whiteSpace=wrap;connectable=0;fillColor=none;top=0;left=0;bottom=0;right=0;overflow=hidden;rounded=0;sketch=0;fontSize=17;strokeColor=#F0F0F0;fontColor=#FFFFFF;align=center;labelPosition=center;verticalLabelPosition=middle;verticalAlign=middle;labelBackgroundColor=none;" parent="jtx8YUKIoFRYlrF7leEJ-246" vertex="1"><mxGeometry x="100" width="238" height="65" as="geometry"><mxRectangle width="238" height="65" as="alternateBounds"/></mxGeometry></mxCell><mxCell id="jtx8YUKIoFRYlrF7leEJ-249" value="list[byte]" style="shape=partialRectangle;html=1;whiteSpace=wrap;connectable=0;fillColor=none;top=0;left=0;bottom=0;right=0;overflow=hidden;rounded=0;sketch=0;fontSize=17;strokeColor=#F0F0F0;fontColor=#FFFFFF;align=center;labelPosition=center;verticalLabelPosition=middle;verticalAlign=middle;labelBackgroundColor=none;" parent="jtx8YUKIoFRYlrF7leEJ-246" vertex="1"><mxGeometry x="338" width="236" height="65" as="geometry"><mxRectangle width="236" height="65" as="alternateBounds"/></mxGeometry></mxCell><mxCell id="jtx8YUKIoFRYlrF7leEJ-250" value="topic 字符串转字节" style="shape=partialRectangle;html=1;whiteSpace=wrap;connectable=0;fillColor=none;top=0;left=0;bottom=0;right=0;overflow=hidden;rounded=0;sketch=0;fontSize=17;strokeColor=#F0F0F0;fontColor=#FFFFFF;align=center;labelPosition=center;verticalLabelPosition=middle;verticalAlign=middle;labelBackgroundColor=none;" parent="jtx8YUKIoFRYlrF7leEJ-246" vertex="1"><mxGeometry x="574" width="326" height="65" as="geometry"><mxRectangle width="326" height="65" as="alternateBounds"/></mxGeometry></mxCell><mxCell id="jtx8YUKIoFRYlrF7leEJ-251" value="" style="shape=tableRow;horizontal=0;startSize=0;swimlaneHead=0;swimlaneBody=0;top=0;left=0;bottom=0;right=0;collapsible=0;dropTarget=0;fillColor=none;points=[[0,0.5],[1,0.5]];portConstraint=eastwest;rounded=0;sketch=0;fontSize=17;" parent="jtx8YUKIoFRYlrF7leEJ-235" vertex="1"><mxGeometry y="246" width="900" height="67" as="geometry"/></mxCell><mxCell id="jtx8YUKIoFRYlrF7leEJ-252" value="2" style="shape=partialRectangle;html=1;whiteSpace=wrap;connectable=0;fillColor=none;top=0;left=0;bottom=0;right=0;overflow=hidden;rounded=0;sketch=0;fontSize=17;" parent="jtx8YUKIoFRYlrF7leEJ-251" vertex="1"><mxGeometry width="100" height="67" as="geometry"><mxRectangle width="100" height="67" as="alternateBounds"/></mxGeometry></mxCell><mxCell id="jtx8YUKIoFRYlrF7leEJ-253" value="&lt;div style=&quot;font-size: 17px;&quot;&gt;&lt;pre style=&quot;font-family: &amp;quot;JetBrains Mono&amp;quot;, monospace; font-size: 17px;&quot;&gt;key_len&lt;/pre&gt;&lt;/div&gt;" style="shape=partialRectangle;html=1;whiteSpace=wrap;connectable=0;fillColor=none;top=0;left=0;bottom=0;right=0;overflow=hidden;rounded=0;sketch=0;fontSize=17;strokeColor=#F0F0F0;fontColor=#FFFFFF;align=center;labelPosition=center;verticalLabelPosition=middle;verticalAlign=middle;labelBackgroundColor=none;" parent="jtx8YUKIoFRYlrF7leEJ-251" vertex="1"><mxGeometry x="100" width="238" height="67" as="geometry"><mxRectangle width="238" height="67" as="alternateBounds"/></mxGeometry></mxCell><mxCell id="jtx8YUKIoFRYlrF7leEJ-254" value="byte" style="shape=partialRectangle;html=1;whiteSpace=wrap;connectable=0;fillColor=none;top=0;left=0;bottom=0;right=0;overflow=hidden;rounded=0;sketch=0;fontSize=17;strokeColor=#F0F0F0;fontColor=#FFFFFF;align=center;labelPosition=center;verticalLabelPosition=middle;verticalAlign=middle;labelBackgroundColor=none;" parent="jtx8YUKIoFRYlrF7leEJ-251" vertex="1"><mxGeometry x="338" width="236" height="67" as="geometry"><mxRectangle width="236" height="67" as="alternateBounds"/></mxGeometry></mxCell><mxCell id="jtx8YUKIoFRYlrF7leEJ-255" value="key 字节长度" style="shape=partialRectangle;html=1;whiteSpace=wrap;connectable=0;fillColor=none;top=0;left=0;bottom=0;right=0;overflow=hidden;rounded=0;sketch=0;fontSize=17;strokeColor=#F0F0F0;fontColor=#FFFFFF;align=center;labelPosition=center;verticalLabelPosition=middle;verticalAlign=middle;labelBackgroundColor=none;" parent="jtx8YUKIoFRYlrF7leEJ-251" vertex="1"><mxGeometry x="574" width="326" height="67" as="geometry"><mxRectangle width="326" height="67" as="alternateBounds"/></mxGeometry></mxCell><mxCell id="jtx8YUKIoFRYlrF7leEJ-256" value="" style="shape=tableRow;horizontal=0;startSize=0;swimlaneHead=0;swimlaneBody=0;top=0;left=0;bottom=0;right=0;collapsible=0;dropTarget=0;fillColor=none;points=[[0,0.5],[1,0.5]];portConstraint=eastwest;rounded=0;sketch=0;fontSize=17;" parent="jtx8YUKIoFRYlrF7leEJ-235" vertex="1"><mxGeometry y="313" width="900" height="67" as="geometry"/></mxCell><mxCell id="jtx8YUKIoFRYlrF7leEJ-257" value="3" style="shape=partialRectangle;html=1;whiteSpace=wrap;connectable=0;fillColor=none;top=0;left=0;bottom=0;right=0;overflow=hidden;rounded=0;sketch=0;fontSize=17;" parent="jtx8YUKIoFRYlrF7leEJ-256" vertex="1"><mxGeometry width="100" height="67" as="geometry"><mxRectangle width="100" height="67" as="alternateBounds"/></mxGeometry></mxCell><mxCell id="jtx8YUKIoFRYlrF7leEJ-258" value="&lt;div style=&quot;font-size: 17px;&quot;&gt;&lt;pre style=&quot;font-family: &amp;quot;JetBrains Mono&amp;quot;, monospace; font-size: 17px;&quot;&gt;&lt;span style=&quot;font-style: italic; font-size: 17px;&quot;&gt;key&lt;/span&gt;&lt;/pre&gt;&lt;/div&gt;" style="shape=partialRectangle;html=1;whiteSpace=wrap;connectable=0;fillColor=none;top=0;left=0;bottom=0;right=0;overflow=hidden;rounded=0;sketch=0;fontSize=17;strokeColor=#F0F0F0;fontColor=#FFFFFF;align=center;labelPosition=center;verticalLabelPosition=middle;verticalAlign=middle;labelBackgroundColor=none;" parent="jtx8YUKIoFRYlrF7leEJ-256" vertex="1"><mxGeometry x="100" width="238" height="67" as="geometry"><mxRectangle width="238" height="67" as="alternateBounds"/></mxGeometry></mxCell><mxCell id="jtx8YUKIoFRYlrF7leEJ-259" value="list[byte]" style="shape=partialRectangle;html=1;whiteSpace=wrap;connectable=0;fillColor=none;top=0;left=0;bottom=0;right=0;overflow=hidden;rounded=0;sketch=0;fontSize=17;strokeColor=#F0F0F0;fontColor=#FFFFFF;align=center;labelPosition=center;verticalLabelPosition=middle;verticalAlign=middle;labelBackgroundColor=none;" parent="jtx8YUKIoFRYlrF7leEJ-256" vertex="1"><mxGeometry x="338" width="236" height="67" as="geometry"><mxRectangle width="236" height="67" as="alternateBounds"/></mxGeometry></mxCell><mxCell id="jtx8YUKIoFRYlrF7leEJ-260" value="key" style="shape=partialRectangle;html=1;whiteSpace=wrap;connectable=0;fillColor=none;top=0;left=0;bottom=0;right=0;overflow=hidden;rounded=0;sketch=0;fontSize=17;strokeColor=#F0F0F0;fontColor=#FFFFFF;align=center;labelPosition=center;verticalLabelPosition=middle;verticalAlign=middle;labelBackgroundColor=none;" parent="jtx8YUKIoFRYlrF7leEJ-256" vertex="1"><mxGeometry x="574" width="326" height="67" as="geometry"><mxRectangle width="326" height="67" as="alternateBounds"/></mxGeometry></mxCell><mxCell id="jtx8YUKIoFRYlrF7leEJ-261" style="shape=tableRow;horizontal=0;startSize=0;swimlaneHead=0;swimlaneBody=0;top=0;left=0;bottom=0;right=0;collapsible=0;dropTarget=0;fillColor=none;points=[[0,0.5],[1,0.5]];portConstraint=eastwest;rounded=0;sketch=0;fontSize=17;" parent="jtx8YUKIoFRYlrF7leEJ-235" vertex="1"><mxGeometry y="380" width="900" height="67" as="geometry"/></mxCell><mxCell id="jtx8YUKIoFRYlrF7leEJ-262" value="4" style="shape=partialRectangle;html=1;whiteSpace=wrap;connectable=0;fillColor=none;top=0;left=0;bottom=0;right=0;overflow=hidden;rounded=0;sketch=0;fontSize=17;" parent="jtx8YUKIoFRYlrF7leEJ-261" vertex="1"><mxGeometry width="100" height="67" as="geometry"><mxRectangle width="100" height="67" as="alternateBounds"/></mxGeometry></mxCell><mxCell id="jtx8YUKIoFRYlrF7leEJ-263" value="value_len" style="shape=partialRectangle;html=1;whiteSpace=wrap;connectable=0;fillColor=none;top=0;left=0;bottom=0;right=0;overflow=hidden;rounded=0;sketch=0;fontSize=17;strokeColor=#F0F0F0;fontColor=#FFFFFF;align=center;labelPosition=center;verticalLabelPosition=middle;verticalAlign=middle;labelBackgroundColor=none;" parent="jtx8YUKIoFRYlrF7leEJ-261" vertex="1"><mxGeometry x="100" width="238" height="67" as="geometry"><mxRectangle width="238" height="67" as="alternateBounds"/></mxGeometry></mxCell><mxCell id="jtx8YUKIoFRYlrF7leEJ-264" value="uint16" style="shape=partialRectangle;html=1;whiteSpace=wrap;connectable=0;fillColor=none;top=0;left=0;bottom=0;right=0;overflow=hidden;rounded=0;sketch=0;fontSize=17;strokeColor=#F0F0F0;fontColor=#FFFFFF;align=center;labelPosition=center;verticalLabelPosition=middle;verticalAlign=middle;labelBackgroundColor=none;" parent="jtx8YUKIoFRYlrF7leEJ-261" vertex="1"><mxGeometry x="338" width="236" height="67" as="geometry"><mxRectangle width="236" height="67" as="alternateBounds"/></mxGeometry></mxCell><mxCell id="jtx8YUKIoFRYlrF7leEJ-265" value="value 字节长度" style="shape=partialRectangle;html=1;whiteSpace=wrap;connectable=0;fillColor=none;top=0;left=0;bottom=0;right=0;overflow=hidden;rounded=0;sketch=0;fontSize=17;strokeColor=#F0F0F0;fontColor=#FFFFFF;align=center;labelPosition=center;verticalLabelPosition=middle;verticalAlign=middle;labelBackgroundColor=none;" parent="jtx8YUKIoFRYlrF7leEJ-261" vertex="1"><mxGeometry x="574" width="326" height="67" as="geometry"><mxRectangle width="326" height="67" as="alternateBounds"/></mxGeometry></mxCell><mxCell id="jtx8YUKIoFRYlrF7leEJ-266" style="shape=tableRow;horizontal=0;startSize=0;swimlaneHead=0;swimlaneBody=0;top=0;left=0;bottom=0;right=0;collapsible=0;dropTarget=0;fillColor=none;points=[[0,0.5],[1,0.5]];portConstraint=eastwest;rounded=0;sketch=0;fontSize=17;" parent="jtx8YUKIoFRYlrF7leEJ-235" vertex="1"><mxGeometry y="447" width="900" height="67" as="geometry"/></mxCell><mxCell id="jtx8YUKIoFRYlrF7leEJ-267" value="5" style="shape=partialRectangle;html=1;whiteSpace=wrap;connectable=0;fillColor=none;top=0;left=0;bottom=0;right=0;overflow=hidden;rounded=0;sketch=0;fontSize=17;" parent="jtx8YUKIoFRYlrF7leEJ-266" vertex="1"><mxGeometry width="100" height="67" as="geometry"><mxRectangle width="100" height="67" as="alternateBounds"/></mxGeometry></mxCell><mxCell id="jtx8YUKIoFRYlrF7leEJ-268" value="value" style="shape=partialRectangle;html=1;whiteSpace=wrap;connectable=0;fillColor=none;top=0;left=0;bottom=0;right=0;overflow=hidden;rounded=0;sketch=0;fontSize=17;strokeColor=#F0F0F0;fontColor=#FFFFFF;align=center;labelPosition=center;verticalLabelPosition=middle;verticalAlign=middle;labelBackgroundColor=none;" parent="jtx8YUKIoFRYlrF7leEJ-266" vertex="1"><mxGeometry x="100" width="238" height="67" as="geometry"><mxRectangle width="238" height="67" as="alternateBounds"/></mxGeometry></mxCell><mxCell id="jtx8YUKIoFRYlrF7leEJ-269" value="&lt;span style=&quot;color: rgb(255, 255, 255); font-family: Helvetica; font-size: 17px; font-style: normal; font-variant-ligatures: normal; font-variant-caps: normal; font-weight: 400; letter-spacing: normal; orphans: 2; text-align: center; text-indent: 0px; text-transform: none; widows: 2; word-spacing: 0px; -webkit-text-stroke-width: 0px; background-color: rgb(42, 42, 42); text-decoration-thickness: initial; text-decoration-style: initial; text-decoration-color: initial; float: none; display: inline !important;&quot;&gt;list[byte]&lt;/span&gt;" style="shape=partialRectangle;html=1;whiteSpace=wrap;connectable=0;fillColor=none;top=0;left=0;bottom=0;right=0;overflow=hidden;rounded=0;sketch=0;fontSize=17;strokeColor=#F0F0F0;fontColor=#FFFFFF;align=center;labelPosition=center;verticalLabelPosition=middle;verticalAlign=middle;labelBackgroundColor=none;" parent="jtx8YUKIoFRYlrF7leEJ-266" vertex="1"><mxGeometry x="338" width="236" height="67" as="geometry"><mxRectangle width="236" height="67" as="alternateBounds"/></mxGeometry></mxCell><mxCell id="jtx8YUKIoFRYlrF7leEJ-270" value="value" style="shape=partialRectangle;html=1;whiteSpace=wrap;connectable=0;fillColor=none;top=0;left=0;bottom=0;right=0;overflow=hidden;rounded=0;sketch=0;fontSize=17;strokeColor=#F0F0F0;fontColor=#FFFFFF;align=center;labelPosition=center;verticalLabelPosition=middle;verticalAlign=middle;labelBackgroundColor=none;" parent="jtx8YUKIoFRYlrF7leEJ-266" vertex="1"><mxGeometry x="574" width="326" height="67" as="geometry"><mxRectangle width="326" height="67" as="alternateBounds"/></mxGeometry></mxCell><mxCell id="jtx8YUKIoFRYlrF7leEJ-272" style="shape=tableRow;horizontal=0;startSize=0;swimlaneHead=0;swimlaneBody=0;top=0;left=0;bottom=0;right=0;collapsible=0;dropTarget=0;fillColor=none;points=[[0,0.5],[1,0.5]];portConstraint=eastwest;rounded=0;sketch=0;fontSize=17;" parent="jtx8YUKIoFRYlrF7leEJ-235" vertex="1"><mxGeometry y="514" width="900" height="67" as="geometry"/></mxCell><mxCell id="jtx8YUKIoFRYlrF7leEJ-273" value="6" style="shape=partialRectangle;html=1;whiteSpace=wrap;connectable=0;fillColor=none;top=0;left=0;bottom=0;right=0;overflow=hidden;rounded=0;sketch=0;fontSize=17;" parent="jtx8YUKIoFRYlrF7leEJ-272" vertex="1"><mxGeometry width="100" height="67" as="geometry"><mxRectangle width="100" height="67" as="alternateBounds"/></mxGeometry></mxCell><mxCell id="jtx8YUKIoFRYlrF7leEJ-274" value="offset" style="shape=partialRectangle;html=1;whiteSpace=wrap;connectable=0;fillColor=none;top=0;left=0;bottom=0;right=0;overflow=hidden;rounded=0;sketch=0;fontSize=17;strokeColor=#F0F0F0;fontColor=#FFFFFF;align=center;labelPosition=center;verticalLabelPosition=middle;verticalAlign=middle;labelBackgroundColor=none;" parent="jtx8YUKIoFRYlrF7leEJ-272" vertex="1"><mxGeometry x="100" width="238" height="67" as="geometry"><mxRectangle width="238" height="67" as="alternateBounds"/></mxGeometry></mxCell><mxCell id="jtx8YUKIoFRYlrF7leEJ-275" value="uint64" style="shape=partialRectangle;html=1;whiteSpace=wrap;connectable=0;fillColor=none;top=0;left=0;bottom=0;right=0;overflow=hidden;rounded=0;sketch=0;fontSize=17;strokeColor=#F0F0F0;fontColor=#FFFFFF;align=center;labelPosition=center;verticalLabelPosition=middle;verticalAlign=middle;labelBackgroundColor=none;" parent="jtx8YUKIoFRYlrF7leEJ-272" vertex="1"><mxGeometry x="338" width="236" height="67" as="geometry"><mxRectangle width="236" height="67" as="alternateBounds"/></mxGeometry></mxCell><mxCell id="jtx8YUKIoFRYlrF7leEJ-276" value="当前消息所在topic的偏移量" style="shape=partialRectangle;html=1;whiteSpace=wrap;connectable=0;fillColor=none;top=0;left=0;bottom=0;right=0;overflow=hidden;rounded=0;sketch=0;fontSize=17;strokeColor=#F0F0F0;fontColor=#FFFFFF;align=center;labelPosition=center;verticalLabelPosition=middle;verticalAlign=middle;labelBackgroundColor=none;" parent="jtx8YUKIoFRYlrF7leEJ-272" vertex="1"><mxGeometry x="574" width="326" height="67" as="geometry"><mxRectangle width="326" height="67" as="alternateBounds"/></mxGeometry></mxCell><mxCell id="jtx8YUKIoFRYlrF7leEJ-277" style="shape=tableRow;horizontal=0;startSize=0;swimlaneHead=0;swimlaneBody=0;top=0;left=0;bottom=0;right=0;collapsible=0;dropTarget=0;fillColor=none;points=[[0,0.5],[1,0.5]];portConstraint=eastwest;rounded=0;sketch=0;fontSize=17;" parent="jtx8YUKIoFRYlrF7leEJ-235" vertex="1"><mxGeometry y="581" width="900" height="67" as="geometry"/></mxCell><mxCell id="jtx8YUKIoFRYlrF7leEJ-278" value="7" style="shape=partialRectangle;html=1;whiteSpace=wrap;connectable=0;fillColor=none;top=0;left=0;bottom=0;right=0;overflow=hidden;rounded=0;sketch=0;fontSize=17;" parent="jtx8YUKIoFRYlrF7leEJ-277" vertex="1"><mxGeometry width="100" height="67" as="geometry"><mxRectangle width="100" height="67" as="alternateBounds"/></mxGeometry></mxCell><mxCell id="jtx8YUKIoFRYlrF7leEJ-279" value="product_time" style="shape=partialRectangle;html=1;whiteSpace=wrap;connectable=0;fillColor=none;top=0;left=0;bottom=0;right=0;overflow=hidden;rounded=0;sketch=0;fontSize=17;strokeColor=#F0F0F0;fontColor=#FFFFFF;align=center;labelPosition=center;verticalLabelPosition=middle;verticalAlign=middle;labelBackgroundColor=none;" parent="jtx8YUKIoFRYlrF7leEJ-277" vertex="1"><mxGeometry x="100" width="238" height="67" as="geometry"><mxRectangle width="238" height="67" as="alternateBounds"/></mxGeometry></mxCell><mxCell id="jtx8YUKIoFRYlrF7leEJ-280" value="uint64" style="shape=partialRectangle;html=1;whiteSpace=wrap;connectable=0;fillColor=none;top=0;left=0;bottom=0;right=0;overflow=hidden;rounded=0;sketch=0;fontSize=17;strokeColor=#F0F0F0;fontColor=#FFFFFF;align=center;labelPosition=center;verticalLabelPosition=middle;verticalAlign=middle;labelBackgroundColor=none;" parent="jtx8YUKIoFRYlrF7leEJ-277" vertex="1"><mxGeometry x="338" width="236" height="67" as="geometry"><mxRectangle width="236" height="67" as="alternateBounds"/></mxGeometry></mxCell><mxCell id="jtx8YUKIoFRYlrF7leEJ-281" value="服务器接收到此消息时的unix毫秒时间戳" style="shape=partialRectangle;html=1;whiteSpace=wrap;connectable=0;fillColor=none;top=0;left=0;bottom=0;right=0;overflow=hidden;rounded=0;sketch=0;fontSize=17;strokeColor=#F0F0F0;fontColor=#FFFFFF;align=center;labelPosition=center;verticalLabelPosition=middle;verticalAlign=middle;labelBackgroundColor=none;" parent="jtx8YUKIoFRYlrF7leEJ-277" vertex="1"><mxGeometry x="574" width="326" height="67" as="geometry"><mxRectangle width="326" height="67" as="alternateBounds"/></mxGeometry></mxCell></root></mxGraphModel></diagram></mxfile>